STARTFONT 2.1
COMMENT 
COMMENT Converted from TrueType font "LiberationSerif-Italic.ttf" by "ttf2bdf 2.9".
COMMENT 
FONT -FreeType-Liberation Serif-Medium-I-Normal--15-110-100-100-P-77-ISO10646-1
SIZE 11 100 100
FONTBOUNDINGBOX 18 23 -3 -9
STARTPROPERTIES 20
FOUNDRY "FreeType"
FAMILY_NAME "Liberation Serif"
WEIGHT_NAME "Medium"
SLANT "I"
SETWIDTH_NAME "Normal"
ADD_STYLE_NAME ""
PIXEL_SIZE 15
POINT_SIZE 110
RESOLUTION_X 100
RESOLUTION_Y 100
SPACING "P"
AVERAGE_WIDTH 77
CHARSET_REGISTRY "ISO10646"
CHARSET_ENCODING "1"
FONT_ASCENT 13
FONT_DESCENT 3
COPYRIGHT "Digitized data © 2007 Ascender Corporation. All rights reserved."
_TTF_FONTFILE "LiberationSerif-Italic.ttf"
_TTF_PSNAME "LiberationSerif-Italic"
_GBDFED_INFO "Edited with gbdfed 1.3."
ENDPROPERTIES
CHARS 656
STARTCHAR 0020
ENCODING 32
SWIDTH 196 0
DWIDTH 3 0
BBX 0 0 0 0
BITMAP
ENDCHAR
STARTCHAR 0021
ENCODING 33
SWIDTH 261 0
DWIDTH 4 0
BBX 2 10 0 0
BITMAP
40
40
40
40
80
80
80
80
00
80
ENDCHAR
STARTCHAR 0022
ENCODING 34
SWIDTH 327 0
DWIDTH 5 0
BBX 3 4 0 6
BITMAP
A0
A0
A0
A0
ENDCHAR
STARTCHAR 0023
ENCODING 35
SWIDTH 458 0
DWIDTH 7 0
BBX 7 10 0 0
BITMAP
12
12
24
FE
24
48
FE
48
90
90
ENDCHAR
STARTCHAR 0024
ENCODING 36
SWIDTH 523 0
DWIDTH 8 0
BBX 7 12 0 -1
BITMAP
08
3E
52
50
50
30
18
24
24
A4
F8
20
ENDCHAR
STARTCHAR 0025
ENCODING 37
SWIDTH 850 0
DWIDTH 13 0
BBX 11 10 0 0
BITMAP
3040
4880
8900
9200
6400
08C0
0920
1220
2240
4180
ENDCHAR
STARTCHAR 0026
ENCODING 38
SWIDTH 785 0
DWIDTH 12 0
BBX 10 10 0 0
BITMAP
1C00
2200
2200
2C00
31C0
4880
8500
8200
8600
7980
ENDCHAR
STARTCHAR 0027
ENCODING 39
SWIDTH 196 0
DWIDTH 3 0
BBX 1 4 0 6
BITMAP
80
80
80
80
ENDCHAR
STARTCHAR 0028
ENCODING 40
SWIDTH 327 0
DWIDTH 5 0
BBX 5 13 0 -3
BITMAP
08
10
20
40
40
80
80
80
80
80
80
40
20
ENDCHAR
STARTCHAR 0029
ENCODING 41
SWIDTH 327 0
DWIDTH 5 0
BBX 5 13 -1 -3
BITMAP
20
10
08
08
08
08
08
08
10
10
20
40
80
ENDCHAR
STARTCHAR 002A
ENCODING 42
SWIDTH 523 0
DWIDTH 8 0
BBX 5 5 0 5
BITMAP
20
A8
70
F8
20
ENDCHAR
STARTCHAR 002B
ENCODING 43
SWIDTH 458 0
DWIDTH 7 0
BBX 7 7 0 2
BITMAP
10
10
10
FE
10
10
10
ENDCHAR
STARTCHAR 002C
ENCODING 44
SWIDTH 261 0
DWIDTH 4 0
BBX 2 4 0 -3
BITMAP
40
40
40
80
ENDCHAR
STARTCHAR 002D
ENCODING 45
SWIDTH 327 0
DWIDTH 5 0
BBX 4 1 0 3
BITMAP
F0
ENDCHAR
STARTCHAR 002E
ENCODING 46
SWIDTH 261 0
DWIDTH 4 0
BBX 1 1 0 0
BITMAP
80
ENDCHAR
STARTCHAR 002F
ENCODING 47
SWIDTH 261 0
DWIDTH 4 0
BBX 6 10 -1 0
BITMAP
04
08
08
10
10
20
20
40
40
80
ENDCHAR
STARTCHAR 0030
ENCODING 48
SWIDTH 523 0
DWIDTH 8 0
BBX 7 10 0 0
BITMAP
1C
22
42
42
82
82
84
84
88
70
ENDCHAR
STARTCHAR 0031
ENCODING 49
SWIDTH 458 0
DWIDTH 7 0
BBX 4 10 0 0
BITMAP
10
30
10
10
10
10
20
20
20
F0
ENDCHAR
STARTCHAR 0032
ENCODING 50
SWIDTH 523 0
DWIDTH 8 0
BBX 8 10 0 0
BITMAP
3E
21
01
01
02
04
18
20
40
FE
ENDCHAR
STARTCHAR 0033
ENCODING 51
SWIDTH 523 0
DWIDTH 8 0
BBX 8 10 0 0
BITMAP
3E
21
01
02
1C
06
02
02
84
F8
ENDCHAR
STARTCHAR 0034
ENCODING 52
SWIDTH 523 0
DWIDTH 8 0
BBX 7 10 0 0
BITMAP
04
0C
14
14
28
48
88
FE
08
08
ENDCHAR
STARTCHAR 0035
ENCODING 53
SWIDTH 523 0
DWIDTH 8 0
BBX 8 10 0 0
BITMAP
3F
40
40
40
7C
02
02
02
84
F8
ENDCHAR
STARTCHAR 0036
ENCODING 54
SWIDTH 523 0
DWIDTH 8 0
BBX 7 10 0 0
BITMAP
1E
22
40
40
B8
C4
84
84
88
70
ENDCHAR
STARTCHAR 0037
ENCODING 55
SWIDTH 523 0
DWIDTH 8 0
BBX 8 10 0 0
BITMAP
7F
42
04
04
08
10
20
20
40
80
ENDCHAR
STARTCHAR 0038
ENCODING 56
SWIDTH 523 0
DWIDTH 8 0
BBX 7 10 0 0
BITMAP
3C
42
42
44
38
44
84
84
84
78
ENDCHAR
STARTCHAR 0039
ENCODING 57
SWIDTH 523 0
DWIDTH 8 0
BBX 7 10 0 0
BITMAP
1C
22
42
42
42
3E
04
04
88
F0
ENDCHAR
STARTCHAR 003A
ENCODING 58
SWIDTH 327 0
DWIDTH 5 0
BBX 2 7 0 0
BITMAP
40
00
00
00
00
00
80
ENDCHAR
STARTCHAR 003B
ENCODING 59
SWIDTH 327 0
DWIDTH 5 0
BBX 3 10 0 -3
BITMAP
20
00
00
00
00
00
40
40
40
80
ENDCHAR
STARTCHAR 003C
ENCODING 60
SWIDTH 654 0
DWIDTH 10 0
BBX 7 7 0 2
BITMAP
02
0C
30
C0
60
18
06
ENDCHAR
STARTCHAR 003D
ENCODING 61
SWIDTH 654 0
DWIDTH 10 0
BBX 7 4 0 3
BITMAP
FE
00
00
FE
ENDCHAR
STARTCHAR 003E
ENCODING 62
SWIDTH 654 0
DWIDTH 10 0
BBX 7 7 0 2
BITMAP
80
60
18
06
0C
30
C0
ENDCHAR
STARTCHAR 003F
ENCODING 63
SWIDTH 523 0
DWIDTH 8 0
BBX 5 10 0 0
BITMAP
F0
88
08
08
10
E0
80
80
00
80
ENDCHAR
STARTCHAR 0040
ENCODING 64
SWIDTH 916 0
DWIDTH 14 0
BBX 12 13 0 -3
BITMAP
0FC0
1020
2010
4390
4C90
8890
9110
9120
9340
9D80
4000
2080
1F00
ENDCHAR
STARTCHAR 0041
ENCODING 65
SWIDTH 589 0
DWIDTH 9 0
BBX 10 10 -1 0
BITMAP
0200
0600
0500
0900
0900
1100
3F00
2080
4080
E1C0
ENDCHAR
STARTCHAR 0042
ENCODING 66
SWIDTH 523 0
DWIDTH 8 0
BBX 8 10 0 0
BITMAP
7E
21
21
22
3C
22
41
41
42
FC
ENDCHAR
STARTCHAR 0043
ENCODING 67
SWIDTH 654 0
DWIDTH 10 0
BBX 9 10 0 0
BITMAP
1F80
2080
4000
8000
8000
8000
8000
8000
4100
3F00
ENDCHAR
STARTCHAR 0044
ENCODING 68
SWIDTH 654 0
DWIDTH 10 0
BBX 10 10 0 0
BITMAP
7F00
2080
2040
2040
2040
2040
4040
4080
4100
FE00
ENDCHAR
STARTCHAR 0045
ENCODING 69
SWIDTH 589 0
DWIDTH 9 0
BBX 9 10 0 0
BITMAP
7F80
2080
2000
2200
3E00
2200
4000
4000
4100
FF00
ENDCHAR
STARTCHAR 0046
ENCODING 70
SWIDTH 589 0
DWIDTH 9 0
BBX 9 10 0 0
BITMAP
7F80
2080
2000
2000
2200
3E00
4200
4000
4000
F000
ENDCHAR
STARTCHAR 0047
ENCODING 71
SWIDTH 720 0
DWIDTH 11 0
BBX 9 10 0 0
BITMAP
1F80
2080
4000
8000
8000
8380
8100
8100
4200
3E00
ENDCHAR
STARTCHAR 0048
ENCODING 72
SWIDTH 654 0
DWIDTH 10 0
BBX 10 10 0 0
BITMAP
71C0
2080
2080
2080
3F80
2080
4100
4100
4100
E380
ENDCHAR
STARTCHAR 0049
ENCODING 73
SWIDTH 261 0
DWIDTH 4 0
BBX 4 10 0 0
BITMAP
70
20
20
20
20
20
40
40
40
E0
ENDCHAR
STARTCHAR 004A
ENCODING 74
SWIDTH 458 0
DWIDTH 7 0
BBX 6 10 -1 0
BITMAP
1C
08
08
08
08
08
10
10
90
E0
ENDCHAR
STARTCHAR 004B
ENCODING 75
SWIDTH 654 0
DWIDTH 10 0
BBX 10 10 0 0
BITMAP
71C0
2100
2200
2400
3800
2400
4400
4200
4100
E1C0
ENDCHAR
STARTCHAR 004C
ENCODING 76
SWIDTH 458 0
DWIDTH 7 0
BBX 7 10 0 0
BITMAP
70
20
20
20
20
20
40
40
42
FE
ENDCHAR
STARTCHAR 004D
ENCODING 77
SWIDTH 785 0
DWIDTH 12 0
BBX 12 10 0 0
BITMAP
7030
3060
2860
28A0
28A0
2920
4A40
4640
4440
E4E0
ENDCHAR
STARTCHAR 004E
ENCODING 78
SWIDTH 589 0
DWIDTH 9 0
BBX 10 10 0 0
BITMAP
71C0
3080
2880
2880
2880
2480
4500
4300
4300
E100
ENDCHAR
STARTCHAR 004F
ENCODING 79
SWIDTH 720 0
DWIDTH 11 0
BBX 9 10 0 0
BITMAP
1E00
2100
4080
4080
8080
8080
8100
8100
4200
3C00
ENDCHAR
STARTCHAR 0050
ENCODING 80
SWIDTH 523 0
DWIDTH 8 0
BBX 8 10 0 0
BITMAP
7E
21
21
21
22
3C
40
40
40
F0
ENDCHAR
STARTCHAR 0051
ENCODING 81
SWIDTH 720 0
DWIDTH 11 0
BBX 9 12 0 -2
BITMAP
1E00
2100
4080
4080
8080
8080
8100
8100
4200
3C00
0800
0700
ENDCHAR
STARTCHAR 0052
ENCODING 82
SWIDTH 523 0
DWIDTH 8 0
BBX 8 10 0 0
BITMAP
7E
21
21
21
22
3C
44
44
42
E3
ENDCHAR
STARTCHAR 0053
ENCODING 83
SWIDTH 523 0
DWIDTH 8 0
BBX 8 10 0 0
BITMAP
3F
41
40
40
30
0C
02
02
82
FC
ENDCHAR
STARTCHAR 0054
ENCODING 84
SWIDTH 523 0
DWIDTH 8 0
BBX 8 10 0 0
BITMAP
FF
91
10
10
10
10
20
20
20
F8
ENDCHAR
STARTCHAR 0055
ENCODING 85
SWIDTH 654 0
DWIDTH 10 0
BBX 9 10 0 0
BITMAP
E380
4100
4100
4100
8100
8100
8200
8200
8200
7C00
ENDCHAR
STARTCHAR 0056
ENCODING 86
SWIDTH 589 0
DWIDTH 9 0
BBX 10 10 0 0
BITMAP
E1C0
4080
4100
2200
2200
2400
2400
2800
1000
1000
ENDCHAR
STARTCHAR 0057
ENCODING 87
SWIDTH 785 0
DWIDTH 12 0
BBX 12 10 0 0
BITMAP
E070
4420
4440
4C40
5480
5680
5300
2300
2200
2200
ENDCHAR
STARTCHAR 0058
ENCODING 88
SWIDTH 589 0
DWIDTH 9 0
BBX 9 10 0 0
BITMAP
7380
2100
1200
1400
0800
1800
1400
2400
4200
E700
ENDCHAR
STARTCHAR 0059
ENCODING 89
SWIDTH 589 0
DWIDTH 9 0
BBX 8 10 0 0
BITMAP
E7
42
44
28
28
30
10
20
20
F8
ENDCHAR
STARTCHAR 005A
ENCODING 90
SWIDTH 523 0
DWIDTH 8 0
BBX 8 10 0 0
BITMAP
7F
41
02
04
08
10
20
40
82
FE
ENDCHAR
STARTCHAR 005B
ENCODING 91
SWIDTH 392 0
DWIDTH 6 0
BBX 6 12 0 -2
BITMAP
3C
20
20
40
40
40
40
40
80
80
80
F0
ENDCHAR
STARTCHAR 005C
ENCODING 92
SWIDTH 261 0
DWIDTH 4 0
BBX 2 10 0 0
BITMAP
80
80
80
80
80
40
40
40
40
40
ENDCHAR
STARTCHAR 005D
ENCODING 93
SWIDTH 392 0
DWIDTH 6 0
BBX 6 12 -1 -2
BITMAP
3C
04
04
08
08
08
08
08
10
10
10
F0
ENDCHAR
STARTCHAR 005E
ENCODING 94
SWIDTH 392 0
DWIDTH 6 0
BBX 7 7 0 3
BITMAP
10
30
28
48
44
84
82
ENDCHAR
STARTCHAR 005F
ENCODING 95
SWIDTH 523 0
DWIDTH 8 0
BBX 8 1 0 -2
BITMAP
FF
ENDCHAR
STARTCHAR 0060
ENCODING 96
SWIDTH 327 0
DWIDTH 5 0
BBX 3 2 0 8
BITMAP
C0
20
ENDCHAR
STARTCHAR 0061
ENCODING 97
SWIDTH 523 0
DWIDTH 8 0
BBX 6 7 0 0
BITMAP
3C
44
84
88
88
98
6C
ENDCHAR
STARTCHAR 0062
ENCODING 98
SWIDTH 523 0
DWIDTH 8 0
BBX 6 10 0 0
BITMAP
60
40
40
58
64
44
84
84
88
F0
ENDCHAR
STARTCHAR 0063
ENCODING 99
SWIDTH 458 0
DWIDTH 7 0
BBX 6 7 0 0
BITMAP
3C
44
80
80
80
88
70
ENDCHAR
STARTCHAR 0064
ENCODING 100
SWIDTH 523 0
DWIDTH 8 0
BBX 7 10 0 0
BITMAP
06
04
04
3C
44
84
88
88
98
6C
ENDCHAR
STARTCHAR 0065
ENCODING 101
SWIDTH 458 0
DWIDTH 7 0
BBX 5 7 0 0
BITMAP
38
48
98
E0
80
88
70
ENDCHAR
STARTCHAR 0066
ENCODING 102
SWIDTH 327 0
DWIDTH 5 0
BBX 6 13 0 -3
BITMAP
1C
24
20
78
20
40
40
40
40
40
80
80
80
ENDCHAR
STARTCHAR 0067
ENCODING 103
SWIDTH 523 0
DWIDTH 8 0
BBX 7 10 0 -3
BITMAP
1E
22
42
42
44
44
3C
04
88
F0
ENDCHAR
STARTCHAR 0068
ENCODING 104
SWIDTH 523 0
DWIDTH 8 0
BBX 6 10 0 0
BITMAP
60
20
40
58
64
44
44
88
88
8C
ENDCHAR
STARTCHAR 0069
ENCODING 105
SWIDTH 261 0
DWIDTH 4 0
BBX 2 10 0 0
BITMAP
40
00
00
C0
40
40
80
80
80
C0
ENDCHAR
STARTCHAR 006A
ENCODING 106
SWIDTH 327 0
DWIDTH 5 0
BBX 5 13 -1 -3
BITMAP
08
00
00
18
08
08
08
10
10
10
10
A0
C0
ENDCHAR
STARTCHAR 006B
ENCODING 107
SWIDTH 523 0
DWIDTH 8 0
BBX 7 10 0 0
BITMAP
60
20
40
4E
48
50
78
88
84
86
ENDCHAR
STARTCHAR 006C
ENCODING 108
SWIDTH 261 0
DWIDTH 4 0
BBX 3 10 0 0
BITMAP
60
40
40
40
40
40
80
80
80
C0
ENDCHAR
STARTCHAR 006D
ENCODING 109
SWIDTH 654 0
DWIDTH 10 0
BBX 8 7 0 0
BITMAP
D2
6D
49
4A
92
92
93
ENDCHAR
STARTCHAR 006E
ENCODING 110
SWIDTH 523 0
DWIDTH 8 0
BBX 6 7 0 0
BITMAP
D8
64
44
44
88
88
8C
ENDCHAR
STARTCHAR 006F
ENCODING 111
SWIDTH 523 0
DWIDTH 8 0
BBX 6 7 0 0
BITMAP
38
44
84
84
84
88
70
ENDCHAR
STARTCHAR 0070
ENCODING 112
SWIDTH 523 0
DWIDTH 8 0
BBX 8 10 -1 -3
BITMAP
36
19
11
21
21
22
3C
20
40
E0
ENDCHAR
STARTCHAR 0071
ENCODING 113
SWIDTH 523 0
DWIDTH 8 0
BBX 6 10 0 -3
BITMAP
3C
44
84
84
88
98
68
08
08
0C
ENDCHAR
STARTCHAR 0072
ENCODING 114
SWIDTH 392 0
DWIDTH 6 0
BBX 5 7 0 0
BITMAP
D8
68
40
40
80
80
80
ENDCHAR
STARTCHAR 0073
ENCODING 115
SWIDTH 392 0
DWIDTH 6 0
BBX 6 7 0 0
BITMAP
3C
44
40
30
08
88
F0
ENDCHAR
STARTCHAR 0074
ENCODING 116
SWIDTH 261 0
DWIDTH 4 0
BBX 4 9 0 0
BITMAP
40
40
F0
40
40
80
80
80
60
ENDCHAR
STARTCHAR 0075
ENCODING 117
SWIDTH 523 0
DWIDTH 8 0
BBX 6 7 0 0
BITMAP
C4
44
44
88
88
98
6C
ENDCHAR
STARTCHAR 0076
ENCODING 118
SWIDTH 458 0
DWIDTH 7 0
BBX 7 7 0 0
BITMAP
C2
42
24
24
28
10
10
ENDCHAR
STARTCHAR 0077
ENCODING 119
SWIDTH 654 0
DWIDTH 10 0
BBX 10 7 0 0
BITMAP
C040
4440
4C80
4D00
5500
2200
2200
ENDCHAR
STARTCHAR 0078
ENCODING 120
SWIDTH 458 0
DWIDTH 7 0
BBX 7 7 0 0
BITMAP
62
24
28
10
28
48
8C
ENDCHAR
STARTCHAR 0079
ENCODING 121
SWIDTH 458 0
DWIDTH 7 0
BBX 8 10 -1 -3
BITMAP
61
21
22
12
14
14
08
10
90
E0
ENDCHAR
STARTCHAR 007A
ENCODING 122
SWIDTH 392 0
DWIDTH 6 0
BBX 6 7 0 0
BITMAP
7C
48
10
10
20
48
F8
ENDCHAR
STARTCHAR 007B
ENCODING 123
SWIDTH 392 0
DWIDTH 6 0
BBX 5 12 0 -2
BITMAP
18
20
20
20
40
80
40
40
40
40
40
60
ENDCHAR
STARTCHAR 007C
ENCODING 124
SWIDTH 261 0
DWIDTH 4 0
BBX 1 13 0 -3
BITMAP
80
80
80
80
80
80
80
80
80
80
80
80
80
ENDCHAR
STARTCHAR 007D
ENCODING 125
SWIDTH 392 0
DWIDTH 6 0
BBX 5 12 0 -2
BITMAP
30
10
10
10
10
18
20
20
20
20
20
C0
ENDCHAR
STARTCHAR 007E
ENCODING 126
SWIDTH 523 0
DWIDTH 8 0
BBX 7 3 0 4
BITMAP
62
92
8C
ENDCHAR
STARTCHAR 00A0
ENCODING 160
SWIDTH 196 0
DWIDTH 3 0
BBX 0 0 0 0
BITMAP
ENDCHAR
STARTCHAR 00A1
ENCODING 161
SWIDTH 327 0
DWIDTH 5 0
BBX 3 10 1 -3
BITMAP
20
00
40
40
40
80
80
80
80
80
ENDCHAR
STARTCHAR 00A2
ENCODING 162
SWIDTH 523 0
DWIDTH 8 0
BBX 7 10 1 0
BITMAP
08
1E
72
50
90
90
A0
A4
78
20
ENDCHAR
STARTCHAR 00A3
ENCODING 163
SWIDTH 523 0
DWIDTH 8 0
BBX 8 10 0 0
BITMAP
0F
11
20
20
20
78
20
20
40
FC
ENDCHAR
STARTCHAR 00A4
ENCODING 164
SWIDTH 458 0
DWIDTH 7 0
BBX 6 6 1 1
BITMAP
58
24
40
40
24
58
ENDCHAR
STARTCHAR 00A5
ENCODING 165
SWIDTH 523 0
DWIDTH 8 0
BBX 8 10 1 0
BITMAP
E7
42
44
28
30
F8
20
F8
20
70
ENDCHAR
STARTCHAR 00A6
ENCODING 166
SWIDTH 261 0
DWIDTH 4 0
BBX 1 13 2 -3
BITMAP
80
80
80
80
80
00
00
00
80
80
80
80
80
ENDCHAR
STARTCHAR 00A7
ENCODING 167
SWIDTH 523 0
DWIDTH 8 0
BBX 7 12 0 -2
BITMAP
1E
22
20
18
24
42
42
44
38
08
88
F0
ENDCHAR
STARTCHAR 00A8
ENCODING 168
SWIDTH 261 0
DWIDTH 4 0
BBX 4 1 2 9
BITMAP
90
ENDCHAR
STARTCHAR 00A9
ENCODING 169
SWIDTH 654 0
DWIDTH 10 0
BBX 9 10 1 0
BITMAP
1C00
6300
5D00
A080
A080
A080
A080
5D00
6300
1C00
ENDCHAR
STARTCHAR 00AA
ENCODING 170
SWIDTH 261 0
DWIDTH 4 0
BBX 4 4 1 6
BITMAP
70
A0
A0
F0
ENDCHAR
STARTCHAR 00AB
ENCODING 171
SWIDTH 523 0
DWIDTH 8 0
BBX 6 5 2 1
BITMAP
24
48
90
90
48
ENDCHAR
STARTCHAR 00AC
ENCODING 172
SWIDTH 654 0
DWIDTH 10 0
BBX 6 4 2 2
BITMAP
FC
04
04
04
ENDCHAR
STARTCHAR 00AD
ENCODING 173
SWIDTH 327 0
DWIDTH 5 0
BBX 4 1 0 3
BITMAP
F0
ENDCHAR
STARTCHAR 00AE
ENCODING 174
SWIDTH 720 0
DWIDTH 11 0
BBX 10 10 1 0
BITMAP
1E00
6180
5C80
9240
9240
9C40
9440
5280
6180
1E00
ENDCHAR
STARTCHAR 00AF
ENCODING 175
SWIDTH 523 0
DWIDTH 8 0
BBX 8 1 1 11
BITMAP
FF
ENDCHAR
STARTCHAR 00B0
ENCODING 176
SWIDTH 392 0
DWIDTH 6 0
BBX 5 5 1 5
BITMAP
70
88
88
88
70
ENDCHAR
STARTCHAR 00B1
ENCODING 177
SWIDTH 523 0
DWIDTH 8 0
BBX 7 9 1 0
BITMAP
10
10
10
FE
10
10
10
00
FE
ENDCHAR
STARTCHAR 00B2
ENCODING 178
SWIDTH 261 0
DWIDTH 4 0
BBX 4 6 0 4
BITMAP
60
10
10
20
40
F0
ENDCHAR
STARTCHAR 00B3
ENCODING 179
SWIDTH 327 0
DWIDTH 5 0
BBX 4 6 0 4
BITMAP
60
10
60
30
10
E0
ENDCHAR
STARTCHAR 00B4
ENCODING 180
SWIDTH 327 0
DWIDTH 5 0
BBX 3 2 2 8
BITMAP
60
80
ENDCHAR
STARTCHAR 00B5
ENCODING 181
SWIDTH 589 0
DWIDTH 9 0
BBX 8 10 0 -3
BITMAP
30
10
10
21
21
23
3D
20
40
40
ENDCHAR
STARTCHAR 00B6
ENCODING 182
SWIDTH 523 0
DWIDTH 8 0
BBX 7 12 1 -2
BITMAP
7E
F2
F2
F2
F2
72
12
12
12
12
12
12
ENDCHAR
STARTCHAR 00B7
ENCODING 183
SWIDTH 261 0
DWIDTH 4 0
BBX 1 1 1 4
BITMAP
80
ENDCHAR
STARTCHAR 00B8
ENCODING 184
SWIDTH 327 0
DWIDTH 5 0
BBX 3 3 1 -3
BITMAP
40
20
C0
ENDCHAR
STARTCHAR 00B9
ENCODING 185
SWIDTH 327 0
DWIDTH 5 0
BBX 3 6 1 4
BITMAP
60
20
40
40
40
E0
ENDCHAR
STARTCHAR 00BA
ENCODING 186
SWIDTH 327 0
DWIDTH 5 0
BBX 4 4 1 6
BITMAP
60
90
90
60
ENDCHAR
STARTCHAR 00BB
ENCODING 187
SWIDTH 523 0
DWIDTH 8 0
BBX 6 5 0 1
BITMAP
48
48
24
48
90
ENDCHAR
STARTCHAR 00BC
ENCODING 188
SWIDTH 720 0
DWIDTH 11 0
BBX 10 10 1 0
BITMAP
6080
2100
4200
4400
4440
E8C0
1140
1280
23C0
4080
ENDCHAR
STARTCHAR 00BD
ENCODING 189
SWIDTH 720 0
DWIDTH 11 0
BBX 9 10 1 0
BITMAP
6080
2100
4200
4400
4700
E880
1080
1100
2200
4780
ENDCHAR
STARTCHAR 00BE
ENCODING 190
SWIDTH 720 0
DWIDTH 11 0
BBX 10 10 1 0
BITMAP
6080
1100
6200
3400
1440
E8C0
1140
1280
23C0
4080
ENDCHAR
STARTCHAR 00BF
ENCODING 191
SWIDTH 523 0
DWIDTH 8 0
BBX 5 10 1 -3
BITMAP
10
00
10
10
30
40
80
80
88
78
ENDCHAR
STARTCHAR 00C0
ENCODING 192
SWIDTH 589 0
DWIDTH 9 0
BBX 10 13 -1 0
BITMAP
0600
0100
0000
0200
0600
0500
0900
0900
1100
3F00
2080
4080
E1C0
ENDCHAR
STARTCHAR 00C1
ENCODING 193
SWIDTH 589 0
DWIDTH 9 0
BBX 10 13 -1 0
BITMAP
0180
0200
0000
0200
0600
0500
0900
0900
1100
3F00
2080
4080
E1C0
ENDCHAR
STARTCHAR 00C2
ENCODING 194
SWIDTH 589 0
DWIDTH 9 0
BBX 10 13 -1 0
BITMAP
0300
0480
0000
0200
0600
0500
0900
0900
1100
3F00
2080
4080
E1C0
ENDCHAR
STARTCHAR 00C3
ENCODING 195
SWIDTH 589 0
DWIDTH 9 0
BBX 10 13 -1 0
BITMAP
0640
0580
0000
0200
0600
0500
0900
0900
1100
3F00
2080
4080
E1C0
ENDCHAR
STARTCHAR 00C4
ENCODING 196
SWIDTH 589 0
DWIDTH 9 0
BBX 10 12 -1 0
BITMAP
0480
0000
0200
0600
0500
0900
0900
1100
3F00
2080
4080
E1C0
ENDCHAR
STARTCHAR 00C5
ENCODING 197
SWIDTH 589 0
DWIDTH 9 0
BBX 10 12 -1 0
BITMAP
0200
0500
0200
0600
0500
0900
0900
1100
3F00
2080
4080
E1C0
ENDCHAR
STARTCHAR 00C6
ENCODING 198
SWIDTH 850 0
DWIDTH 13 0
BBX 14 10 -1 0
BITMAP
01FC
0080
0180
0288
04F8
0888
0F00
1100
2104
73FC
ENDCHAR
STARTCHAR 00C7
ENCODING 199
SWIDTH 654 0
DWIDTH 10 0
BBX 9 13 1 -3
BITMAP
1F80
2080
4000
8000
8000
8000
8000
8000
4100
3F00
0800
0400
1800
ENDCHAR
STARTCHAR 00C8
ENCODING 200
SWIDTH 589 0
DWIDTH 9 0
BBX 8 13 1 0
BITMAP
0C
02
00
7F
20
20
22
3E
22
40
40
41
FF
ENDCHAR
STARTCHAR 00C9
ENCODING 201
SWIDTH 589 0
DWIDTH 9 0
BBX 8 13 1 0
BITMAP
03
04
00
7F
20
20
22
3E
22
40
40
41
FF
ENDCHAR
STARTCHAR 00CA
ENCODING 202
SWIDTH 589 0
DWIDTH 9 0
BBX 8 13 1 0
BITMAP
06
09
00
7F
20
20
22
3E
22
40
40
41
FF
ENDCHAR
STARTCHAR 00CB
ENCODING 203
SWIDTH 589 0
DWIDTH 9 0
BBX 8 12 1 0
BITMAP
09
00
7F
20
20
22
3E
22
40
40
41
FF
ENDCHAR
STARTCHAR 00CC
ENCODING 204
SWIDTH 327 0
DWIDTH 5 0
BBX 4 13 0 0
BITMAP
30
00
00
30
10
10
10
10
10
20
20
20
70
ENDCHAR
STARTCHAR 00CD
ENCODING 205
SWIDTH 327 0
DWIDTH 5 0
BBX 6 13 0 0
BITMAP
04
08
00
38
10
10
10
10
10
20
20
20
70
ENDCHAR
STARTCHAR 00CE
ENCODING 206
SWIDTH 327 0
DWIDTH 5 0
BBX 5 13 0 0
BITMAP
18
20
00
38
10
10
10
10
10
20
20
20
70
ENDCHAR
STARTCHAR 00CF
ENCODING 207
SWIDTH 327 0
DWIDTH 5 0
BBX 5 12 0 0
BITMAP
20
00
38
10
10
10
10
10
20
20
20
70
ENDCHAR
STARTCHAR 00D0
ENCODING 208
SWIDTH 720 0
DWIDTH 11 0
BBX 10 10 0 -1
BITMAP
3F80
1040
1000
1000
7C00
1000
2000
2040
2080
7F00
ENDCHAR
STARTCHAR 00D1
ENCODING 209
SWIDTH 654 0
DWIDTH 10 0
BBX 11 13 0 0
BITMAP
0640
0580
0000
38E0
1840
1440
1440
1440
1240
2280
2180
2180
7080
ENDCHAR
STARTCHAR 00D2
ENCODING 210
SWIDTH 720 0
DWIDTH 11 0
BBX 9 13 1 0
BITMAP
0C00
0200
0000
1E00
2100
4080
4080
8080
8080
8100
8100
4200
3C00
ENDCHAR
STARTCHAR 00D3
ENCODING 211
SWIDTH 720 0
DWIDTH 11 0
BBX 9 13 1 0
BITMAP
0300
0400
0000
1E00
2100
4080
4080
8080
8080
8100
8100
4200
3C00
ENDCHAR
STARTCHAR 00D4
ENCODING 212
SWIDTH 720 0
DWIDTH 11 0
BBX 9 13 1 0
BITMAP
0600
0900
0000
1E00
2100
4080
4080
8080
8080
8100
8100
4200
3C00
ENDCHAR
STARTCHAR 00D5
ENCODING 213
SWIDTH 720 0
DWIDTH 11 0
BBX 9 11 1 -9
BITMAP
1F00
2300
4180
4180
8180
8180
8300
8300
4300
3F00
0300
ENDCHAR
STARTCHAR 00D6
ENCODING 214
SWIDTH 720 0
DWIDTH 11 0
BBX 9 12 1 0
BITMAP
0900
0000
1E00
2100
4080
4080
8080
8080
8100
8100
4200
3C00
ENDCHAR
STARTCHAR 00D7
ENCODING 215
SWIDTH 654 0
DWIDTH 10 0
BBX 5 5 3 2
BITMAP
40
28
10
28
40
ENDCHAR
STARTCHAR 00D8
ENCODING 216
SWIDTH 720 0
DWIDTH 11 0
BBX 8 10 2 -1
BITMAP
1E
21
41
42
8C
90
A1
C1
42
BC
ENDCHAR
STARTCHAR 00D9
ENCODING 217
SWIDTH 720 0
DWIDTH 11 0
BBX 8 13 2 0
BITMAP
18
04
00
E3
41
41
41
81
81
82
82
82
7C
ENDCHAR
STARTCHAR 00DA
ENCODING 218
SWIDTH 720 0
DWIDTH 11 0
BBX 8 13 2 0
BITMAP
03
04
00
E3
41
41
41
81
81
82
82
82
7C
ENDCHAR
STARTCHAR 00DB
ENCODING 219
SWIDTH 720 0
DWIDTH 11 0
BBX 8 13 2 0
BITMAP
0C
12
00
E3
41
41
41
81
81
82
82
82
7C
ENDCHAR
STARTCHAR 00DC
ENCODING 220
SWIDTH 720 0
DWIDTH 11 0
BBX 8 12 2 0
BITMAP
09
00
E3
41
41
41
81
81
82
82
82
7C
ENDCHAR
STARTCHAR 00DD
ENCODING 221
SWIDTH 523 0
DWIDTH 8 0
BBX 8 13 1 0
BITMAP
03
04
00
73
21
22
14
14
18
08
10
10
7C
ENDCHAR
STARTCHAR 00DE
ENCODING 222
SWIDTH 589 0
DWIDTH 9 0
BBX 8 10 0 0
BITMAP
38
10
1F
10
10
10
21
3E
20
78
ENDCHAR
STARTCHAR 00DF
ENCODING 223
SWIDTH 523 0
DWIDTH 8 0
BBX 8 10 0 0
BITMAP
07
08
10
13
14
14
22
21
29
6E
ENDCHAR
STARTCHAR 00E0
ENCODING 224
SWIDTH 523 0
DWIDTH 8 0
BBX 6 10 1 0
BITMAP
18
04
00
3C
44
84
88
88
98
6C
ENDCHAR
STARTCHAR 00E1
ENCODING 225
SWIDTH 523 0
DWIDTH 8 0
BBX 7 10 1 0
BITMAP
06
08
00
3C
44
84
88
88
98
6C
ENDCHAR
STARTCHAR 00E2
ENCODING 226
SWIDTH 523 0
DWIDTH 8 0
BBX 6 10 1 0
BITMAP
18
24
00
3C
44
84
88
88
98
6C
ENDCHAR
STARTCHAR 00E3
ENCODING 227
SWIDTH 523 0
DWIDTH 8 0
BBX 7 10 1 0
BITMAP
12
2C
00
3C
44
84
88
88
98
6C
ENDCHAR
STARTCHAR 00E4
ENCODING 228
SWIDTH 523 0
DWIDTH 8 0
BBX 6 10 1 0
BITMAP
24
00
00
3C
44
84
88
88
98
6C
ENDCHAR
STARTCHAR 00E5
ENCODING 229
SWIDTH 523 0
DWIDTH 8 0
BBX 6 11 1 0
BITMAP
08
14
08
00
3C
44
84
88
88
98
6C
ENDCHAR
STARTCHAR 00E6
ENCODING 230
SWIDTH 654 0
DWIDTH 10 0
BBX 8 7 1 -1
BITMAP
3F
49
92
9C
90
91
6E
ENDCHAR
STARTCHAR 00E7
ENCODING 231
SWIDTH 458 0
DWIDTH 7 0
BBX 6 10 1 -3
BITMAP
3C
44
80
80
80
88
70
20
10
60
ENDCHAR
STARTCHAR 00E8
ENCODING 232
SWIDTH 458 0
DWIDTH 7 0
BBX 5 10 1 0
BITMAP
30
08
00
38
48
98
E0
80
88
70
ENDCHAR
STARTCHAR 00E9
ENCODING 233
SWIDTH 458 0
DWIDTH 7 0
BBX 6 10 1 0
BITMAP
0C
10
00
38
48
98
E0
80
88
70
ENDCHAR
STARTCHAR 00EA
ENCODING 234
SWIDTH 458 0
DWIDTH 7 0
BBX 6 10 1 0
BITMAP
18
24
00
38
48
98
E0
80
88
70
ENDCHAR
STARTCHAR 00EB
ENCODING 235
SWIDTH 458 0
DWIDTH 7 0
BBX 6 10 1 0
BITMAP
24
00
00
38
48
98
E0
80
88
70
ENDCHAR
STARTCHAR 00EC
ENCODING 236
SWIDTH 261 0
DWIDTH 4 0
BBX 3 10 1 0
BITMAP
C0
20
00
C0
40
40
80
80
80
C0
ENDCHAR
STARTCHAR 00ED
ENCODING 237
SWIDTH 261 0
DWIDTH 4 0
BBX 4 10 1 0
BITMAP
30
40
00
C0
40
40
80
80
80
C0
ENDCHAR
STARTCHAR 00EE
ENCODING 238
SWIDTH 261 0
DWIDTH 4 0
BBX 4 10 1 0
BITMAP
60
90
00
C0
40
40
80
80
80
C0
ENDCHAR
STARTCHAR 00EF
ENCODING 239
SWIDTH 261 0
DWIDTH 4 0
BBX 4 10 1 0
BITMAP
90
00
00
C0
40
40
80
80
80
C0
ENDCHAR
STARTCHAR 00F0
ENCODING 240
SWIDTH 523 0
DWIDTH 8 0
BBX 6 10 1 0
BITMAP
14
28
04
3C
44
84
84
84
88
70
ENDCHAR
STARTCHAR 00F1
ENCODING 241
SWIDTH 523 0
DWIDTH 8 0
BBX 7 10 1 0
BITMAP
32
2C
00
D8
64
44
44
88
88
8C
ENDCHAR
STARTCHAR 00F2
ENCODING 242
SWIDTH 523 0
DWIDTH 8 0
BBX 6 10 1 0
BITMAP
30
08
00
38
44
84
84
84
88
70
ENDCHAR
STARTCHAR 00F3
ENCODING 243
SWIDTH 523 0
DWIDTH 8 0
BBX 7 10 1 0
BITMAP
06
08
00
38
44
84
84
84
88
70
ENDCHAR
STARTCHAR 00F4
ENCODING 244
SWIDTH 523 0
DWIDTH 8 0
BBX 6 10 1 0
BITMAP
18
24
00
38
44
84
84
84
88
70
ENDCHAR
STARTCHAR 00F5
ENCODING 245
SWIDTH 523 0
DWIDTH 8 0
BBX 7 10 1 0
BITMAP
32
2C
00
38
44
84
84
84
88
70
ENDCHAR
STARTCHAR 00F6
ENCODING 246
SWIDTH 523 0
DWIDTH 8 0
BBX 6 10 1 0
BITMAP
24
00
00
38
44
84
84
84
88
70
ENDCHAR
STARTCHAR 00F7
ENCODING 247
SWIDTH 523 0
DWIDTH 8 0
BBX 7 7 1 2
BITMAP
10
00
00
FE
00
00
10
ENDCHAR
STARTCHAR 00F8
ENCODING 248
SWIDTH 523 0
DWIDTH 8 0
BBX 6 7 1 -1
BITMAP
1C
24
48
50
60
44
78
ENDCHAR
STARTCHAR 00F9
ENCODING 249
SWIDTH 523 0
DWIDTH 8 0
BBX 6 10 1 0
BITMAP
30
08
00
C4
44
44
88
88
98
6C
ENDCHAR
STARTCHAR 00FA
ENCODING 250
SWIDTH 523 0
DWIDTH 8 0
BBX 6 10 1 0
BITMAP
0C
10
00
C4
44
44
88
88
98
6C
ENDCHAR
STARTCHAR 00FB
ENCODING 251
SWIDTH 523 0
DWIDTH 8 0
BBX 6 10 1 0
BITMAP
18
24
00
C4
44
44
88
88
98
6C
ENDCHAR
STARTCHAR 00FC
ENCODING 252
SWIDTH 523 0
DWIDTH 8 0
BBX 6 10 1 0
BITMAP
24
00
00
C4
44
44
88
88
98
6C
ENDCHAR
STARTCHAR 00FD
ENCODING 253
SWIDTH 458 0
DWIDTH 7 0
BBX 8 13 -1 -3
BITMAP
03
04
00
61
21
22
12
14
14
08
10
90
E0
ENDCHAR
STARTCHAR 00FE
ENCODING 254
SWIDTH 523 0
DWIDTH 8 0
BBX 8 13 -1 -3
BITMAP
18
10
10
16
19
11
21
21
22
3C
20
40
E0
ENDCHAR
STARTCHAR 00FF
ENCODING 255
SWIDTH 458 0
DWIDTH 7 0
BBX 8 13 -1 -3
BITMAP
09
00
00
61
21
22
12
14
14
08
10
90
E0
ENDCHAR
STARTCHAR 0100
ENCODING 256
SWIDTH 589 0
DWIDTH 9 0
BBX 10 12 -1 0
BITMAP
0F80
0000
0200
0600
0500
0900
0900
1100
3F00
2080
4080
E1C0
ENDCHAR
STARTCHAR 0101
ENCODING 257
SWIDTH 523 0
DWIDTH 8 0
BBX 7 10 1 0
BITMAP
3E
00
00
3C
44
84
88
88
98
6C
ENDCHAR
STARTCHAR 0102
ENCODING 258
SWIDTH 589 0
DWIDTH 9 0
BBX 10 13 -1 0
BITMAP
0480
0300
0000
0200
0600
0500
0900
0900
1100
3F00
2080
4080
E1C0
ENDCHAR
STARTCHAR 0103
ENCODING 259
SWIDTH 523 0
DWIDTH 8 0
BBX 7 10 1 0
BITMAP
12
0C
00
3C
44
84
88
88
98
6C
ENDCHAR
STARTCHAR 0104
ENCODING 260
SWIDTH 589 0
DWIDTH 9 0
BBX 10 13 -1 -3
BITMAP
0200
0600
0500
0900
0900
1100
3F00
2080
4080
E1C0
0100
0100
00C0
ENDCHAR
STARTCHAR 0105
ENCODING 261
SWIDTH 523 0
DWIDTH 8 0
BBX 6 10 1 -3
BITMAP
3C
44
84
88
88
98
6C
10
10
0C
ENDCHAR
STARTCHAR 0106
ENCODING 262
SWIDTH 654 0
DWIDTH 10 0
BBX 9 13 1 0
BITMAP
0180
0200
0000
1F80
2080
4000
8000
8000
8000
8000
8000
4100
3F00
ENDCHAR
STARTCHAR 0107
ENCODING 263
SWIDTH 458 0
DWIDTH 7 0
BBX 7 10 1 0
BITMAP
06
08
00
3C
44
80
80
80
88
70
ENDCHAR
STARTCHAR 0108
ENCODING 264
SWIDTH 654 0
DWIDTH 10 0
BBX 9 13 1 0
BITMAP
0600
0900
0000
1F80
2080
4000
8000
8000
8000
8000
8000
4100
3F00
ENDCHAR
STARTCHAR 0109
ENCODING 265
SWIDTH 458 0
DWIDTH 7 0
BBX 6 10 1 0
BITMAP
18
24
00
3C
44
80
80
80
88
70
ENDCHAR
STARTCHAR 010A
ENCODING 266
SWIDTH 654 0
DWIDTH 10 0
BBX 9 12 1 0
BITMAP
0200
0000
1F80
2080
4000
8000
8000
8000
8000
8000
4100
3F00
ENDCHAR
STARTCHAR 010B
ENCODING 267
SWIDTH 458 0
DWIDTH 7 0
BBX 6 10 1 0
BITMAP
08
00
00
3C
44
80
80
80
88
70
ENDCHAR
STARTCHAR 010C
ENCODING 268
SWIDTH 654 0
DWIDTH 10 0
BBX 9 13 1 0
BITMAP
0900
0600
0000
1F80
2080
4000
8000
8000
8000
8000
8000
4100
3F00
ENDCHAR
STARTCHAR 010D
ENCODING 269
SWIDTH 458 0
DWIDTH 7 0
BBX 7 10 1 0
BITMAP
12
0C
00
3C
44
80
80
80
88
70
ENDCHAR
STARTCHAR 010E
ENCODING 270
SWIDTH 720 0
DWIDTH 11 0
BBX 10 13 0 -1
BITMAP
0240
0180
0000
3F80
1040
1000
1000
1000
1000
2000
2040
2080
7F00
ENDCHAR
STARTCHAR 010F
ENCODING 271
SWIDTH 589 0
DWIDTH 9 0
BBX 9 10 1 0
BITMAP
0680
0480
0500
3C00
4400
8400
8800
8800
9800
6C00
ENDCHAR
STARTCHAR 0110
ENCODING 272
SWIDTH 720 0
DWIDTH 11 0
BBX 10 10 0 -1
BITMAP
3F80
1040
1000
1000
7C00
1000
2000
2040
2080
7F00
ENDCHAR
STARTCHAR 0111
ENCODING 273
SWIDTH 523 0
DWIDTH 8 0
BBX 7 10 1 0
BITMAP
06
1E
04
3C
44
84
88
88
88
7C
ENDCHAR
STARTCHAR 0112
ENCODING 274
SWIDTH 589 0
DWIDTH 9 0
BBX 8 12 1 0
BITMAP
0F
00
7F
20
20
22
3E
22
40
40
41
FF
ENDCHAR
STARTCHAR 0113
ENCODING 275
SWIDTH 458 0
DWIDTH 7 0
BBX 6 10 1 0
BITMAP
7C
00
00
38
48
98
E0
80
88
70
ENDCHAR
STARTCHAR 0114
ENCODING 276
SWIDTH 589 0
DWIDTH 9 0
BBX 8 13 1 0
BITMAP
09
06
00
7F
20
20
22
3E
22
40
40
41
FF
ENDCHAR
STARTCHAR 0115
ENCODING 277
SWIDTH 458 0
DWIDTH 7 0
BBX 6 10 1 0
BITMAP
24
18
00
38
48
98
E0
80
88
70
ENDCHAR
STARTCHAR 0116
ENCODING 278
SWIDTH 589 0
DWIDTH 9 0
BBX 8 12 1 0
BITMAP
02
00
7F
20
20
22
3E
22
40
40
41
FF
ENDCHAR
STARTCHAR 0117
ENCODING 279
SWIDTH 458 0
DWIDTH 7 0
BBX 5 10 1 0
BITMAP
10
00
00
38
48
98
E0
80
88
70
ENDCHAR
STARTCHAR 0118
ENCODING 280
SWIDTH 589 0
DWIDTH 9 0
BBX 8 13 1 -3
BITMAP
7F
20
20
22
3E
22
40
40
41
FF
04
04
03
ENDCHAR
STARTCHAR 0119
ENCODING 281
SWIDTH 458 0
DWIDTH 7 0
BBX 5 10 1 -3
BITMAP
38
48
98
E0
80
88
70
20
20
18
ENDCHAR
STARTCHAR 011A
ENCODING 282
SWIDTH 589 0
DWIDTH 9 0
BBX 8 13 1 0
BITMAP
09
06
00
7F
20
20
22
3E
22
40
40
41
FF
ENDCHAR
STARTCHAR 011B
ENCODING 283
SWIDTH 458 0
DWIDTH 7 0
BBX 6 10 1 0
BITMAP
24
18
00
38
48
98
E0
80
88
70
ENDCHAR
STARTCHAR 011C
ENCODING 284
SWIDTH 720 0
DWIDTH 11 0
BBX 9 13 1 0
BITMAP
0600
0900
0000
1F80
2080
4000
8000
8000
8380
8100
8100
4200
3E00
ENDCHAR
STARTCHAR 011D
ENCODING 285
SWIDTH 523 0
DWIDTH 8 0
BBX 7 13 0 -3
BITMAP
0C
12
00
1E
22
42
42
44
44
3C
04
88
F0
ENDCHAR
STARTCHAR 011E
ENCODING 286
SWIDTH 720 0
DWIDTH 11 0
BBX 9 13 1 0
BITMAP
0900
0600
0000
1F80
2080
4000
8000
8000
8380
8100
8100
4200
3E00
ENDCHAR
STARTCHAR 011F
ENCODING 287
SWIDTH 523 0
DWIDTH 8 0
BBX 7 13 0 -3
BITMAP
12
0C
00
1E
22
42
42
44
44
3C
04
88
F0
ENDCHAR
STARTCHAR 0120
ENCODING 288
SWIDTH 720 0
DWIDTH 11 0
BBX 9 12 1 0
BITMAP
0200
0000
1F80
2080
4000
8000
8000
8380
8100
8100
4200
3E00
ENDCHAR
STARTCHAR 0121
ENCODING 289
SWIDTH 523 0
DWIDTH 8 0
BBX 7 13 0 -3
BITMAP
04
00
00
1E
22
42
42
44
44
3C
04
88
F0
ENDCHAR
STARTCHAR 0122
ENCODING 290
SWIDTH 720 0
DWIDTH 11 0
BBX 9 14 1 -4
BITMAP
1F80
2080
4000
8000
8000
8380
8100
8100
4200
3E00
0000
0800
0800
1000
ENDCHAR
STARTCHAR 0123
ENCODING 291
SWIDTH 523 0
DWIDTH 8 0
BBX 7 14 0 -3
BITMAP
04
08
08
00
1E
22
42
42
44
44
3C
04
88
F0
ENDCHAR
STARTCHAR 0124
ENCODING 292
SWIDTH 720 0
DWIDTH 11 0
BBX 10 13 0 0
BITMAP
0300
0480
0000
38C0
1040
1040
1040
1FC0
1040
2080
2080
2080
71C0
ENDCHAR
STARTCHAR 0125
ENCODING 293
SWIDTH 523 0
DWIDTH 8 0
BBX 7 13 1 0
BITMAP
0C
12
00
60
20
40
58
64
44
44
88
88
8C
ENDCHAR
STARTCHAR 0126
ENCODING 294
SWIDTH 720 0
DWIDTH 11 0
BBX 11 10 0 0
BITMAP
38E0
1040
3FE0
1040
1FC0
1040
2080
2080
2080
71C0
ENDCHAR
STARTCHAR 0127
ENCODING 295
SWIDTH 523 0
DWIDTH 8 0
BBX 6 10 1 0
BITMAP
20
70
40
58
64
44
44
88
88
8C
ENDCHAR
STARTCHAR 0128
ENCODING 296
SWIDTH 327 0
DWIDTH 5 0
BBX 6 13 0 0
BITMAP
10
2C
00
38
10
10
10
10
10
20
20
20
70
ENDCHAR
STARTCHAR 0129
ENCODING 297
SWIDTH 261 0
DWIDTH 4 0
BBX 5 10 1 0
BITMAP
48
B0
00
C0
40
40
80
80
80
C0
ENDCHAR
STARTCHAR 012A
ENCODING 298
SWIDTH 327 0
DWIDTH 5 0
BBX 6 12 0 0
BITMAP
3C
00
38
10
10
10
10
10
20
20
20
70
ENDCHAR
STARTCHAR 012B
ENCODING 299
SWIDTH 261 0
DWIDTH 4 0
BBX 5 10 1 0
BITMAP
F8
00
00
C0
40
40
80
80
80
C0
ENDCHAR
STARTCHAR 012C
ENCODING 300
SWIDTH 327 0
DWIDTH 5 0
BBX 4 13 0 0
BITMAP
40
30
00
30
10
10
10
10
10
20
20
20
70
ENDCHAR
STARTCHAR 012D
ENCODING 301
SWIDTH 261 0
DWIDTH 4 0
BBX 4 10 1 0
BITMAP
90
60
00
C0
40
40
80
80
80
C0
ENDCHAR
STARTCHAR 012E
ENCODING 302
SWIDTH 327 0
DWIDTH 5 0
BBX 4 13 0 -3
BITMAP
30
10
10
10
10
10
20
20
20
70
40
40
30
ENDCHAR
STARTCHAR 012F
ENCODING 303
SWIDTH 261 0
DWIDTH 4 0
BBX 3 13 0 -3
BITMAP
20
00
00
60
20
20
40
40
40
60
80
80
60
ENDCHAR
STARTCHAR 0130
ENCODING 304
SWIDTH 327 0
DWIDTH 5 0
BBX 3 10 1 0
BITMAP
60
20
20
20
20
20
40
40
40
E0
ENDCHAR
STARTCHAR 0131
ENCODING 305
SWIDTH 261 0
DWIDTH 4 0
BBX 2 7 1 0
BITMAP
C0
40
40
80
80
80
C0
ENDCHAR
STARTCHAR 0132
ENCODING 306
SWIDTH 720 0
DWIDTH 11 0
BBX 8 10 0 0
BITMAP
39
10
11
11
11
11
21
23
2A
7E
ENDCHAR
STARTCHAR 0133
ENCODING 307
SWIDTH 523 0
DWIDTH 8 0
BBX 6 13 1 -3
BITMAP
44
00
00
CC
44
44
84
88
88
C8
08
50
60
ENDCHAR
STARTCHAR 0134
ENCODING 308
SWIDTH 458 0
DWIDTH 7 0
BBX 7 13 0 0
BITMAP
0C
12
00
1C
08
08
08
08
08
10
10
90
E0
ENDCHAR
STARTCHAR 0135
ENCODING 309
SWIDTH 261 0
DWIDTH 4 0
BBX 7 13 -2 -3
BITMAP
0C
12
00
18
08
08
08
10
10
10
10
A0
C0
ENDCHAR
STARTCHAR 0136
ENCODING 310
SWIDTH 654 0
DWIDTH 10 0
BBX 10 14 0 -4
BITMAP
38C0
1080
1100
1200
1C00
1200
2200
2100
2080
70C0
0000
0200
0200
0400
ENDCHAR
STARTCHAR 0137
ENCODING 311
SWIDTH 523 0
DWIDTH 8 0
BBX 7 14 1 -4
BITMAP
60
20
40
4E
48
50
78
88
84
86
00
20
20
40
ENDCHAR
STARTCHAR 0138
ENCODING 312
SWIDTH 458 0
DWIDTH 7 0
BBX 6 7 1 0
BITMAP
DC
48
50
60
90
88
8C
ENDCHAR
STARTCHAR 0139
ENCODING 313
SWIDTH 523 0
DWIDTH 8 0
BBX 7 13 0 0
BITMAP
06
08
00
38
10
10
10
10
10
20
20
20
7E
ENDCHAR
STARTCHAR 013A
ENCODING 314
SWIDTH 261 0
DWIDTH 4 0
BBX 5 13 1 0
BITMAP
18
20
00
60
40
40
40
40
40
80
80
80
C0
ENDCHAR
STARTCHAR 013B
ENCODING 315
SWIDTH 523 0
DWIDTH 8 0
BBX 7 14 0 -4
BITMAP
38
10
10
10
10
10
20
20
20
7E
00
04
04
08
ENDCHAR
STARTCHAR 013C
ENCODING 316
SWIDTH 261 0
DWIDTH 4 0
BBX 4 14 0 -4
BITMAP
30
20
20
20
20
20
40
40
40
60
00
40
40
80
ENDCHAR
STARTCHAR 013D
ENCODING 317
SWIDTH 523 0
DWIDTH 8 0
BBX 7 10 0 0
BITMAP
38
10
12
10
10
10
20
20
20
7E
ENDCHAR
STARTCHAR 013E
ENCODING 318
SWIDTH 327 0
DWIDTH 5 0
BBX 5 10 1 0
BITMAP
68
48
50
40
40
40
80
80
80
C0
ENDCHAR
STARTCHAR 013F
ENCODING 319
SWIDTH 523 0
DWIDTH 8 0
BBX 7 10 0 0
BITMAP
38
10
10
10
10
10
20
20
20
7E
ENDCHAR
STARTCHAR 0140
ENCODING 320
SWIDTH 327 0
DWIDTH 5 0
BBX 4 10 1 0
BITMAP
60
40
40
40
50
40
80
80
80
C0
ENDCHAR
STARTCHAR 0141
ENCODING 321
SWIDTH 523 0
DWIDTH 8 0
BBX 7 10 0 0
BITMAP
38
10
10
14
18
30
60
20
20
7E
ENDCHAR
STARTCHAR 0142
ENCODING 322
SWIDTH 261 0
DWIDTH 4 0
BBX 5 10 0 0
BITMAP
30
20
20
20
28
30
E0
40
40
60
ENDCHAR
STARTCHAR 0143
ENCODING 323
SWIDTH 654 0
DWIDTH 10 0
BBX 11 13 0 0
BITMAP
00C0
0100
0000
38E0
1840
1440
1440
1440
1240
2280
2180
2180
7080
ENDCHAR
STARTCHAR 0144
ENCODING 324
SWIDTH 523 0
DWIDTH 8 0
BBX 6 10 1 0
BITMAP
0C
10
00
D8
64
44
44
88
88
8C
ENDCHAR
STARTCHAR 0145
ENCODING 325
SWIDTH 654 0
DWIDTH 10 0
BBX 11 14 0 -4
BITMAP
38E0
1840
1440
1440
1440
1240
2280
2180
2180
7080
0000
0400
0400
0800
ENDCHAR
STARTCHAR 0146
ENCODING 326
SWIDTH 523 0
DWIDTH 8 0
BBX 6 11 1 -4
BITMAP
D8
64
44
44
88
88
8C
00
20
20
40
ENDCHAR
STARTCHAR 0147
ENCODING 327
SWIDTH 654 0
DWIDTH 10 0
BBX 11 13 0 0
BITMAP
0240
0180
0000
38E0
1840
1440
1440
1440
1240
2280
2180
2180
7080
ENDCHAR
STARTCHAR 0148
ENCODING 328
SWIDTH 523 0
DWIDTH 8 0
BBX 7 10 1 0
BITMAP
12
0C
00
D8
64
44
44
88
88
8C
ENDCHAR
STARTCHAR 0149
ENCODING 329
SWIDTH 589 0
DWIDTH 9 0
BBX 8 10 0 0
BITMAP
40
40
40
B6
19
11
11
22
22
23
ENDCHAR
STARTCHAR 014A
ENCODING 330
SWIDTH 654 0
DWIDTH 10 0
BBX 8 10 1 0
BITMAP
67
38
20
20
20
21
41
41
49
EE
ENDCHAR
STARTCHAR 014B
ENCODING 331
SWIDTH 458 0
DWIDTH 7 0
BBX 6 10 1 -3
BITMAP
D8
64
44
44
88
88
88
08
28
30
ENDCHAR
STARTCHAR 014C
ENCODING 332
SWIDTH 720 0
DWIDTH 11 0
BBX 9 12 1 0
BITMAP
1F00
0000
1E00
2100
4080
4080
8080
8080
8100
8100
4200
3C00
ENDCHAR
STARTCHAR 014D
ENCODING 333
SWIDTH 523 0
DWIDTH 8 0
BBX 7 10 1 0
BITMAP
3E
00
00
38
44
84
84
84
88
70
ENDCHAR
STARTCHAR 014E
ENCODING 334
SWIDTH 720 0
DWIDTH 11 0
BBX 9 13 1 0
BITMAP
0900
0600
0000
1E00
2100
4080
4080
8080
8080
8100
8100
4200
3C00
ENDCHAR
STARTCHAR 014F
ENCODING 335
SWIDTH 523 0
DWIDTH 8 0
BBX 6 10 1 0
BITMAP
24
18
00
38
44
84
84
84
88
70
ENDCHAR
STARTCHAR 0150
ENCODING 336
SWIDTH 720 0
DWIDTH 11 0
BBX 9 13 1 0
BITMAP
0480
0900
0000
1E00
2100
4080
4080
8080
8080
8100
8100
4200
3C00
ENDCHAR
STARTCHAR 0151
ENCODING 337
SWIDTH 523 0
DWIDTH 8 0
BBX 7 10 1 0
BITMAP
12
24
00
38
44
84
84
84
88
70
ENDCHAR
STARTCHAR 0152
ENCODING 338
SWIDTH 916 0
DWIDTH 14 0
BBX 13 10 1 0
BITMAP
1FF8
2208
4200
4220
83E0
8220
8400
8400
4410
3FF0
ENDCHAR
STARTCHAR 0153
ENCODING 339
SWIDTH 654 0
DWIDTH 10 0
BBX 8 7 1 0
BITMAP
36
49
89
8E
88
99
66
ENDCHAR
STARTCHAR 0154
ENCODING 340
SWIDTH 589 0
DWIDTH 9 0
BBX 8 13 0 0
BITMAP
01
02
00
3F
10
10
10
11
1E
22
22
21
71
ENDCHAR
STARTCHAR 0155
ENCODING 341
SWIDTH 392 0
DWIDTH 6 0
BBX 6 10 1 0
BITMAP
0C
10
00
D8
68
40
40
80
80
80
ENDCHAR
STARTCHAR 0156
ENCODING 342
SWIDTH 589 0
DWIDTH 9 0
BBX 8 14 0 -4
BITMAP
3F
10
10
10
11
1E
22
22
21
71
00
04
04
08
ENDCHAR
STARTCHAR 0157
ENCODING 343
SWIDTH 392 0
DWIDTH 6 0
BBX 6 11 0 -4
BITMAP
6C
34
20
20
40
40
40
00
40
40
80
ENDCHAR
STARTCHAR 0158
ENCODING 344
SWIDTH 589 0
DWIDTH 9 0
BBX 8 13 0 0
BITMAP
09
06
00
3F
10
10
10
11
1E
22
22
21
71
ENDCHAR
STARTCHAR 0159
ENCODING 345
SWIDTH 392 0
DWIDTH 6 0
BBX 6 10 1 0
BITMAP
24
18
00
D8
68
40
40
80
80
80
ENDCHAR
STARTCHAR 015A
ENCODING 346
SWIDTH 523 0
DWIDTH 8 0
BBX 8 13 0 0
BITMAP
03
04
00
3F
41
40
40
30
0C
02
02
82
FC
ENDCHAR
STARTCHAR 015B
ENCODING 347
SWIDTH 392 0
DWIDTH 6 0
BBX 6 10 0 0
BITMAP
0C
10
00
3C
44
40
30
08
88
F0
ENDCHAR
STARTCHAR 015C
ENCODING 348
SWIDTH 523 0
DWIDTH 8 0
BBX 8 13 0 0
BITMAP
06
09
00
3F
41
40
40
30
0C
02
02
82
FC
ENDCHAR
STARTCHAR 015D
ENCODING 349
SWIDTH 392 0
DWIDTH 6 0
BBX 6 10 0 0
BITMAP
18
24
00
3C
44
40
30
08
88
F0
ENDCHAR
STARTCHAR 015E
ENCODING 350
SWIDTH 523 0
DWIDTH 8 0
BBX 8 13 0 -3
BITMAP
3F
41
40
40
30
0C
02
02
82
FC
10
08
30
ENDCHAR
STARTCHAR 015F
ENCODING 351
SWIDTH 392 0
DWIDTH 6 0
BBX 6 10 0 -3
BITMAP
3C
44
40
30
08
88
F0
20
10
60
ENDCHAR
STARTCHAR 0160
ENCODING 352
SWIDTH 523 0
DWIDTH 8 0
BBX 8 13 0 0
BITMAP
09
06
00
3F
41
40
40
30
0C
02
02
82
FC
ENDCHAR
STARTCHAR 0161
ENCODING 353
SWIDTH 392 0
DWIDTH 6 0
BBX 7 10 0 0
BITMAP
12
0C
00
3C
44
40
30
08
88
F0
ENDCHAR
STARTCHAR 0162
ENCODING 354
SWIDTH 523 0
DWIDTH 8 0
BBX 8 14 1 -4
BITMAP
FF
91
10
10
10
10
20
20
20
F8
00
20
20
40
ENDCHAR
STARTCHAR 0163
ENCODING 355
SWIDTH 261 0
DWIDTH 4 0
BBX 4 13 1 -4
BITMAP
40
40
F0
40
40
80
80
80
60
00
40
40
80
ENDCHAR
STARTCHAR 0164
ENCODING 356
SWIDTH 523 0
DWIDTH 8 0
BBX 8 13 1 0
BITMAP
12
0C
00
FF
91
10
10
10
10
20
20
20
F8
ENDCHAR
STARTCHAR 0165
ENCODING 357
SWIDTH 327 0
DWIDTH 5 0
BBX 5 10 1 0
BITMAP
08
48
50
F0
40
40
80
80
80
60
ENDCHAR
STARTCHAR 0166
ENCODING 358
SWIDTH 523 0
DWIDTH 8 0
BBX 8 10 1 0
BITMAP
FF
91
10
10
FC
10
20
20
20
F8
ENDCHAR
STARTCHAR 0167
ENCODING 359
SWIDTH 261 0
DWIDTH 4 0
BBX 4 9 1 0
BITMAP
40
40
F0
40
40
E0
80
80
60
ENDCHAR
STARTCHAR 0168
ENCODING 360
SWIDTH 720 0
DWIDTH 11 0
BBX 8 13 2 0
BITMAP
19
16
00
E3
41
41
41
81
81
82
82
82
7C
ENDCHAR
STARTCHAR 0169
ENCODING 361
SWIDTH 523 0
DWIDTH 8 0
BBX 7 10 1 0
BITMAP
32
2C
00
C4
44
44
88
88
98
6C
ENDCHAR
STARTCHAR 016A
ENCODING 362
SWIDTH 720 0
DWIDTH 11 0
BBX 8 12 2 0
BITMAP
1F
00
E3
41
41
41
81
81
82
82
82
7C
ENDCHAR
STARTCHAR 016B
ENCODING 363
SWIDTH 523 0
DWIDTH 8 0
BBX 7 10 1 0
BITMAP
3E
00
00
C4
44
44
88
88
98
6C
ENDCHAR
STARTCHAR 016C
ENCODING 364
SWIDTH 720 0
DWIDTH 11 0
BBX 8 13 2 0
BITMAP
12
0C
00
E3
41
41
41
81
81
82
82
82
7C
ENDCHAR
STARTCHAR 016D
ENCODING 365
SWIDTH 523 0
DWIDTH 8 0
BBX 6 10 1 0
BITMAP
24
18
00
C4
44
44
88
88
98
6C
ENDCHAR
STARTCHAR 016E
ENCODING 366
SWIDTH 720 0
DWIDTH 11 0
BBX 8 14 2 0
BITMAP
04
0A
04
00
E3
41
41
41
81
81
82
82
82
7C
ENDCHAR
STARTCHAR 016F
ENCODING 367
SWIDTH 523 0
DWIDTH 8 0
BBX 6 11 1 0
BITMAP
10
28
10
00
C4
44
44
88
88
98
6C
ENDCHAR
STARTCHAR 0170
ENCODING 368
SWIDTH 720 0
DWIDTH 11 0
BBX 8 13 2 0
BITMAP
04
09
00
E3
41
41
41
81
81
82
82
82
7C
ENDCHAR
STARTCHAR 0171
ENCODING 369
SWIDTH 523 0
DWIDTH 8 0
BBX 7 10 1 0
BITMAP
12
24
00
C4
44
44
88
88
98
6C
ENDCHAR
STARTCHAR 0172
ENCODING 370
SWIDTH 720 0
DWIDTH 11 0
BBX 8 13 2 -3
BITMAP
E3
41
41
41
81
81
82
82
82
7C
10
10
0C
ENDCHAR
STARTCHAR 0173
ENCODING 371
SWIDTH 523 0
DWIDTH 8 0
BBX 6 10 1 -3
BITMAP
C4
44
44
88
88
98
6C
10
10
0C
ENDCHAR
STARTCHAR 0174
ENCODING 372
SWIDTH 785 0
DWIDTH 12 0
BBX 12 13 1 0
BITMAP
0380
0480
0000
E070
4420
4440
4C40
5480
5680
5300
2300
2200
2200
ENDCHAR
STARTCHAR 0175
ENCODING 373
SWIDTH 654 0
DWIDTH 10 0
BBX 10 10 0 0
BITMAP
0600
0900
0000
C040
4440
4C80
4D00
5500
2200
2200
ENDCHAR
STARTCHAR 0176
ENCODING 374
SWIDTH 523 0
DWIDTH 8 0
BBX 8 13 1 0
BITMAP
06
09
00
73
21
22
14
14
18
08
10
10
7C
ENDCHAR
STARTCHAR 0177
ENCODING 375
SWIDTH 458 0
DWIDTH 7 0
BBX 8 13 -1 -3
BITMAP
06
09
00
61
21
22
12
14
14
08
10
90
E0
ENDCHAR
STARTCHAR 0178
ENCODING 376
SWIDTH 523 0
DWIDTH 8 0
BBX 8 12 1 0
BITMAP
09
00
73
21
22
14
14
18
08
10
10
7C
ENDCHAR
STARTCHAR 0179
ENCODING 377
SWIDTH 523 0
DWIDTH 8 0
BBX 8 13 0 0
BITMAP
03
04
00
3F
20
01
02
04
08
10
20
41
7F
ENDCHAR
STARTCHAR 017A
ENCODING 378
SWIDTH 392 0
DWIDTH 6 0
BBX 7 10 0 0
BITMAP
06
08
00
7C
48
10
10
20
48
F8
ENDCHAR
STARTCHAR 017B
ENCODING 379
SWIDTH 523 0
DWIDTH 8 0
BBX 8 12 0 0
BITMAP
02
00
3F
20
01
02
04
08
10
20
41
7F
ENDCHAR
STARTCHAR 017C
ENCODING 380
SWIDTH 392 0
DWIDTH 6 0
BBX 6 10 0 0
BITMAP
08
00
00
7C
48
10
10
20
48
F8
ENDCHAR
STARTCHAR 017D
ENCODING 381
SWIDTH 523 0
DWIDTH 8 0
BBX 8 13 0 0
BITMAP
04
03
00
3F
20
01
02
04
08
10
20
41
7F
ENDCHAR
STARTCHAR 017E
ENCODING 382
SWIDTH 392 0
DWIDTH 6 0
BBX 6 10 0 0
BITMAP
24
18
00
7C
48
10
10
20
48
F8
ENDCHAR
STARTCHAR 017F
ENCODING 383
SWIDTH 327 0
DWIDTH 5 0
BBX 6 13 0 -3
BITMAP
1C
24
20
20
20
40
40
40
40
40
80
80
80
ENDCHAR
STARTCHAR 0192
ENCODING 402
SWIDTH 523 0
DWIDTH 8 0
BBX 6 12 2 -2
BITMAP
1C
24
20
40
F8
40
40
40
40
80
80
80
ENDCHAR
STARTCHAR 01FA
ENCODING 506
SWIDTH 589 0
DWIDTH 9 0
BBX 10 14 -1 0
BITMAP
0180
0200
0200
0500
0200
0600
0500
0900
0900
1100
3F00
2080
4080
E1C0
ENDCHAR
STARTCHAR 01FB
ENCODING 507
SWIDTH 523 0
DWIDTH 8 0
BBX 7 13 1 0
BITMAP
06
08
08
14
08
00
3C
44
84
88
88
98
6C
ENDCHAR
STARTCHAR 01FC
ENCODING 508
SWIDTH 850 0
DWIDTH 13 0
BBX 14 13 -1 0
BITMAP
000C
0010
0000
01FC
0080
0180
0288
04F8
0888
0F00
1100
2104
73FC
ENDCHAR
STARTCHAR 01FD
ENCODING 509
SWIDTH 654 0
DWIDTH 10 0
BBX 8 10 1 -1
BITMAP
06
08
00
3F
49
92
9C
90
91
6E
ENDCHAR
STARTCHAR 01FE
ENCODING 510
SWIDTH 720 0
DWIDTH 11 0
BBX 8 13 2 -1
BITMAP
03
04
00
1E
21
41
42
8C
90
A1
C1
42
BC
ENDCHAR
STARTCHAR 01FF
ENCODING 511
SWIDTH 523 0
DWIDTH 8 0
BBX 6 10 1 -1
BITMAP
04
08
00
1C
24
48
50
60
44
78
ENDCHAR
STARTCHAR 02C6
ENCODING 710
SWIDTH 327 0
DWIDTH 5 0
BBX 4 2 1 8
BITMAP
60
90
ENDCHAR
STARTCHAR 02C7
ENCODING 711
SWIDTH 327 0
DWIDTH 5 0
BBX 4 2 1 8
BITMAP
90
60
ENDCHAR
STARTCHAR 02C9
ENCODING 713
SWIDTH 327 0
DWIDTH 5 0
BBX 5 1 1 9
BITMAP
F8
ENDCHAR
STARTCHAR 02D8
ENCODING 728
SWIDTH 327 0
DWIDTH 5 0
BBX 4 2 2 8
BITMAP
90
60
ENDCHAR
STARTCHAR 02D9
ENCODING 729
SWIDTH 327 0
DWIDTH 5 0
BBX 1 1 3 9
BITMAP
80
ENDCHAR
STARTCHAR 02DA
ENCODING 730
SWIDTH 327 0
DWIDTH 5 0
BBX 3 3 2 8
BITMAP
40
A0
40
ENDCHAR
STARTCHAR 02DB
ENCODING 731
SWIDTH 327 0
DWIDTH 5 0
BBX 3 3 1 -3
BITMAP
80
80
60
ENDCHAR
STARTCHAR 02DC
ENCODING 732
SWIDTH 327 0
DWIDTH 5 0
BBX 5 2 1 8
BITMAP
48
B0
ENDCHAR
STARTCHAR 02DD
ENCODING 733
SWIDTH 261 0
DWIDTH 4 0
BBX 5 2 1 8
BITMAP
48
90
ENDCHAR
STARTCHAR 037E
ENCODING 894
SWIDTH 327 0
DWIDTH 5 0
BBX 3 10 0 -3
BITMAP
20
00
00
00
00
00
40
40
40
80
ENDCHAR
STARTCHAR 0384
ENCODING 900
SWIDTH 327 0
DWIDTH 5 0
BBX 2 2 2 8
BITMAP
40
80
ENDCHAR
STARTCHAR 0385
ENCODING 901
SWIDTH 327 0
DWIDTH 5 0
BBX 4 3 0 9
BITMAP
20
40
D0
ENDCHAR
STARTCHAR 0386
ENCODING 902
SWIDTH 589 0
DWIDTH 9 0
BBX 10 10 -1 0
BITMAP
1200
2600
0500
0900
0900
1100
3F00
2080
4080
E1C0
ENDCHAR
STARTCHAR 0387
ENCODING 903
SWIDTH 327 0
DWIDTH 5 0
BBX 1 1 2 4
BITMAP
80
ENDCHAR
STARTCHAR 0388
ENCODING 904
SWIDTH 654 0
DWIDTH 10 0
BBX 10 10 0 0
BITMAP
7FC0
9040
1000
1100
1F00
1100
2000
2000
2080
7F80
ENDCHAR
STARTCHAR 0389
ENCODING 905
SWIDTH 785 0
DWIDTH 12 0
BBX 11 10 0 0
BITMAP
78E0
9040
1040
1040
1FC0
1040
2080
2080
2080
71C0
ENDCHAR
STARTCHAR 038A
ENCODING 906
SWIDTH 392 0
DWIDTH 6 0
BBX 5 10 0 0
BITMAP
78
90
10
10
10
10
20
20
20
70
ENDCHAR
STARTCHAR 038C
ENCODING 908
SWIDTH 720 0
DWIDTH 11 0
BBX 10 10 0 0
BITMAP
4F00
9080
2040
2040
4040
4040
4080
4080
2100
1E00
ENDCHAR
STARTCHAR 038E
ENCODING 910
SWIDTH 654 0
DWIDTH 10 0
BBX 10 10 1 0
BITMAP
79C0
9080
1100
0A00
0A00
0C00
0400
0800
0800
3E00
ENDCHAR
STARTCHAR 038F
ENCODING 911
SWIDTH 720 0
DWIDTH 11 0
BBX 10 10 0 0
BITMAP
4F00
9080
2040
4040
4040
4040
4080
3300
9400
F780
ENDCHAR
STARTCHAR 0390
ENCODING 912
SWIDTH 261 0
DWIDTH 4 0
BBX 4 12 1 0
BITMAP
20
40
D0
00
00
C0
40
40
80
80
80
C0
ENDCHAR
STARTCHAR 0391
ENCODING 913
SWIDTH 589 0
DWIDTH 9 0
BBX 10 10 -1 0
BITMAP
0200
0600
0500
0900
0900
1100
3F00
2080
4080
E1C0
ENDCHAR
STARTCHAR 0392
ENCODING 914
SWIDTH 589 0
DWIDTH 9 0
BBX 8 10 0 -1
BITMAP
3F
10
10
11
1E
11
20
20
21
7E
ENDCHAR
STARTCHAR 0393
ENCODING 915
SWIDTH 589 0
DWIDTH 9 0
BBX 8 10 1 0
BITMAP
7F
20
20
20
20
20
40
40
40
E0
ENDCHAR
STARTCHAR 0394
ENCODING 916
SWIDTH 589 0
DWIDTH 9 0
BBX 9 10 -1 0
BITMAP
0200
0500
0500
0900
1100
2100
2100
4080
8080
FF80
ENDCHAR
STARTCHAR 0395
ENCODING 917
SWIDTH 589 0
DWIDTH 9 0
BBX 8 10 1 0
BITMAP
7F
20
20
22
3E
22
40
40
41
FF
ENDCHAR
STARTCHAR 0396
ENCODING 918
SWIDTH 523 0
DWIDTH 8 0
BBX 8 10 0 0
BITMAP
3F
20
01
02
04
08
10
20
41
7F
ENDCHAR
STARTCHAR 0397
ENCODING 919
SWIDTH 720 0
DWIDTH 11 0
BBX 10 10 0 0
BITMAP
38C0
1040
1040
1040
1FC0
1040
2080
2080
2080
71C0
ENDCHAR
STARTCHAR 0398
ENCODING 920
SWIDTH 720 0
DWIDTH 11 0
BBX 9 10 1 0
BITMAP
1E00
2100
4080
4080
9C80
A480
8100
8100
4200
3C00
ENDCHAR
STARTCHAR 0399
ENCODING 921
SWIDTH 327 0
DWIDTH 5 0
BBX 4 10 0 0
BITMAP
30
10
10
10
10
10
20
20
20
70
ENDCHAR
STARTCHAR 039A
ENCODING 922
SWIDTH 654 0
DWIDTH 10 0
BBX 10 10 0 0
BITMAP
38C0
1080
1100
1200
1C00
1200
2200
2100
2080
70C0
ENDCHAR
STARTCHAR 039B
ENCODING 923
SWIDTH 589 0
DWIDTH 9 0
BBX 10 10 -1 0
BITMAP
0100
0280
0280
0480
0880
0880
1040
1040
2040
70C0
ENDCHAR
STARTCHAR 039C
ENCODING 924
SWIDTH 850 0
DWIDTH 13 0
BBX 12 10 0 0
BITMAP
3810
1830
1430
1450
1450
1490
2520
2320
2220
7270
ENDCHAR
STARTCHAR 039D
ENCODING 925
SWIDTH 654 0
DWIDTH 10 0
BBX 11 10 0 0
BITMAP
38E0
1840
1440
1440
1440
1240
2280
2180
2180
7080
ENDCHAR
STARTCHAR 039E
ENCODING 926
SWIDTH 654 0
DWIDTH 10 0
BBX 10 10 0 0
BITMAP
3FC0
2040
0000
1100
1F00
1100
0000
0000
8080
FF00
ENDCHAR
STARTCHAR 039F
ENCODING 927
SWIDTH 720 0
DWIDTH 11 0
BBX 9 10 1 0
BITMAP
1E00
2100
4080
4080
8080
8080
8100
8100
4200
3C00
ENDCHAR
STARTCHAR 03A0
ENCODING 928
SWIDTH 720 0
DWIDTH 11 0
BBX 10 10 0 0
BITMAP
3FC0
1040
1040
1040
1040
1040
2080
2080
2080
71C0
ENDCHAR
STARTCHAR 03A1
ENCODING 929
SWIDTH 589 0
DWIDTH 9 0
BBX 8 10 0 0
BITMAP
3F
10
10
10
11
1E
20
20
20
78
ENDCHAR
STARTCHAR 03A3
ENCODING 931
SWIDTH 589 0
DWIDTH 9 0
BBX 9 10 0 0
BITMAP
3F80
2080
1080
1000
0800
1000
1000
2000
4100
FE00
ENDCHAR
STARTCHAR 03A4
ENCODING 932
SWIDTH 523 0
DWIDTH 8 0
BBX 8 10 1 0
BITMAP
FF
91
10
10
10
10
20
20
20
F8
ENDCHAR
STARTCHAR 03A5
ENCODING 933
SWIDTH 523 0
DWIDTH 8 0
BBX 8 10 1 0
BITMAP
73
21
22
14
14
18
08
10
10
7C
ENDCHAR
STARTCHAR 03A6
ENCODING 934
SWIDTH 720 0
DWIDTH 11 0
BBX 9 10 1 0
BITMAP
1C00
0800
3F00
4880
8880
8880
9100
7E00
1000
3800
ENDCHAR
STARTCHAR 03A7
ENCODING 935
SWIDTH 589 0
DWIDTH 9 0
BBX 8 10 1 0
BITMAP
73
21
12
14
08
18
14
24
42
E7
ENDCHAR
STARTCHAR 03A8
ENCODING 936
SWIDTH 720 0
DWIDTH 11 0
BBX 9 10 1 0
BITMAP
DD80
8900
8900
8900
8A00
7C00
1000
1000
1000
3800
ENDCHAR
STARTCHAR 03A9
ENCODING 937
SWIDTH 720 0
DWIDTH 11 0
BBX 10 10 0 0
BITMAP
0F00
1080
2040
4040
4040
4040
4080
3300
9400
F780
ENDCHAR
STARTCHAR 03AA
ENCODING 938
SWIDTH 327 0
DWIDTH 5 0
BBX 5 12 0 0
BITMAP
20
00
38
10
10
10
10
10
20
20
20
70
ENDCHAR
STARTCHAR 03AB
ENCODING 939
SWIDTH 523 0
DWIDTH 8 0
BBX 8 12 1 0
BITMAP
09
00
73
21
22
14
14
18
08
10
10
7C
ENDCHAR
STARTCHAR 03AC
ENCODING 940
SWIDTH 523 0
DWIDTH 8 0
BBX 7 10 1 0
BITMAP
04
08
00
32
4C
88
88
88
98
6C
ENDCHAR
STARTCHAR 03AD
ENCODING 941
SWIDTH 392 0
DWIDTH 6 0
BBX 5 10 1 0
BITMAP
08
10
00
38
48
40
30
C0
80
70
ENDCHAR
STARTCHAR 03AE
ENCODING 942
SWIDTH 458 0
DWIDTH 7 0
BBX 6 13 1 -3
BITMAP
04
08
00
D8
64
44
44
84
88
88
08
08
08
ENDCHAR
STARTCHAR 03AF
ENCODING 943
SWIDTH 261 0
DWIDTH 4 0
BBX 3 10 1 0
BITMAP
20
40
00
C0
40
40
80
80
80
C0
ENDCHAR
STARTCHAR 03B0
ENCODING 944
SWIDTH 458 0
DWIDTH 7 0
BBX 6 12 1 0
BITMAP
08
10
34
00
00
C8
48
88
88
88
90
60
ENDCHAR
STARTCHAR 03B1
ENCODING 945
SWIDTH 523 0
DWIDTH 8 0
BBX 7 7 1 0
BITMAP
32
4C
88
88
88
98
6C
ENDCHAR
STARTCHAR 03B2
ENCODING 946
SWIDTH 458 0
DWIDTH 7 0
BBX 7 13 0 -3
BITMAP
1C
22
22
24
28
44
44
44
44
78
80
80
80
ENDCHAR
STARTCHAR 03B3
ENCODING 947
SWIDTH 392 0
DWIDTH 6 0
BBX 6 10 0 -3
BITMAP
84
44
48
48
30
30
20
20
40
40
ENDCHAR
STARTCHAR 03B4
ENCODING 948
SWIDTH 458 0
DWIDTH 7 0
BBX 6 10 1 0
BITMAP
1C
24
20
10
30
48
88
88
90
60
ENDCHAR
STARTCHAR 03B5
ENCODING 949
SWIDTH 392 0
DWIDTH 6 0
BBX 5 7 1 0
BITMAP
38
48
40
30
C0
80
70
ENDCHAR
STARTCHAR 03B6
ENCODING 950
SWIDTH 392 0
DWIDTH 6 0
BBX 6 13 1 -3
BITMAP
7C
08
10
20
40
40
80
80
80
60
10
10
20
ENDCHAR
STARTCHAR 03B7
ENCODING 951
SWIDTH 458 0
DWIDTH 7 0
BBX 6 10 1 -3
BITMAP
D8
64
44
44
84
88
88
08
08
08
ENDCHAR
STARTCHAR 03B8
ENCODING 952
SWIDTH 458 0
DWIDTH 7 0
BBX 5 10 1 0
BITMAP
30
48
48
88
F8
88
88
90
90
60
ENDCHAR
STARTCHAR 03B9
ENCODING 953
SWIDTH 261 0
DWIDTH 4 0
BBX 2 7 1 0
BITMAP
C0
40
40
80
80
80
C0
ENDCHAR
STARTCHAR 03BA
ENCODING 954
SWIDTH 458 0
DWIDTH 7 0
BBX 6 7 1 0
BITMAP
CC
50
60
50
90
88
8C
ENDCHAR
STARTCHAR 03BB
ENCODING 955
SWIDTH 458 0
DWIDTH 7 0
BBX 6 10 0 0
BITMAP
30
08
08
08
08
18
24
24
44
84
ENDCHAR
STARTCHAR 03BC
ENCODING 956
SWIDTH 523 0
DWIDTH 8 0
BBX 7 10 0 -3
BITMAP
22
22
22
44
44
44
7E
40
80
80
ENDCHAR
STARTCHAR 03BD
ENCODING 957
SWIDTH 458 0
DWIDTH 7 0
BBX 7 7 0 0
BITMAP
C2
42
24
24
28
10
10
ENDCHAR
STARTCHAR 03BE
ENCODING 958
SWIDTH 392 0
DWIDTH 6 0
BBX 6 13 1 -3
BITMAP
3C
10
20
20
18
60
80
80
80
70
08
08
10
ENDCHAR
STARTCHAR 03BF
ENCODING 959
SWIDTH 523 0
DWIDTH 8 0
BBX 6 7 1 0
BITMAP
38
44
84
84
84
88
70
ENDCHAR
STARTCHAR 03C0
ENCODING 960
SWIDTH 523 0
DWIDTH 8 0
BBX 7 7 1 0
BITMAP
FE
A4
24
44
48
48
8C
ENDCHAR
STARTCHAR 03C1
ENCODING 961
SWIDTH 458 0
DWIDTH 7 0
BBX 6 10 0 -3
BITMAP
18
24
44
44
44
48
70
80
80
80
ENDCHAR
STARTCHAR 03C2
ENCODING 962
SWIDTH 392 0
DWIDTH 6 0
BBX 5 10 1 -3
BITMAP
38
48
40
80
80
80
60
10
10
20
ENDCHAR
STARTCHAR 03C3
ENCODING 963
SWIDTH 458 0
DWIDTH 7 0
BBX 6 8 1 0
BITMAP
04
3C
48
88
88
88
90
60
ENDCHAR
STARTCHAR 03C4
ENCODING 964
SWIDTH 392 0
DWIDTH 6 0
BBX 5 7 1 0
BITMAP
F8
A0
20
40
40
40
30
ENDCHAR
STARTCHAR 03C5
ENCODING 965
SWIDTH 458 0
DWIDTH 7 0
BBX 5 7 1 0
BITMAP
C8
48
88
88
88
90
60
ENDCHAR
STARTCHAR 03C6
ENCODING 966
SWIDTH 523 0
DWIDTH 8 0
BBX 6 10 1 -3
BITMAP
28
54
94
94
A4
A8
70
20
20
20
ENDCHAR
STARTCHAR 03C7
ENCODING 967
SWIDTH 458 0
DWIDTH 7 0
BBX 8 10 -1 -3
BITMAP
31
12
14
14
08
18
28
24
44
86
ENDCHAR
STARTCHAR 03C8
ENCODING 968
SWIDTH 589 0
DWIDTH 9 0
BBX 9 12 1 -3
BITMAP
0400
0800
C980
8900
8900
8900
9200
9200
7C00
1000
1000
1000
ENDCHAR
STARTCHAR 03C9
ENCODING 969
SWIDTH 720 0
DWIDTH 11 0
BBX 9 7 1 0
BITMAP
3100
4080
8080
8C80
8880
9900
6600
ENDCHAR
STARTCHAR 03CA
ENCODING 970
SWIDTH 261 0
DWIDTH 4 0
BBX 4 10 0 0
BITMAP
90
00
00
60
20
20
40
40
40
60
ENDCHAR
STARTCHAR 03CB
ENCODING 971
SWIDTH 458 0
DWIDTH 7 0
BBX 5 10 1 0
BITMAP
48
00
00
C8
48
88
88
88
90
60
ENDCHAR
STARTCHAR 03CC
ENCODING 972
SWIDTH 523 0
DWIDTH 8 0
BBX 6 10 1 0
BITMAP
04
08
00
38
44
84
84
84
88
70
ENDCHAR
STARTCHAR 03CD
ENCODING 973
SWIDTH 458 0
DWIDTH 7 0
BBX 5 10 1 0
BITMAP
08
10
00
C8
48
88
88
88
90
60
ENDCHAR
STARTCHAR 03CE
ENCODING 974
SWIDTH 720 0
DWIDTH 11 0
BBX 9 10 1 0
BITMAP
0200
0400
0000
3100
4080
8080
8C80
8880
9900
6600
ENDCHAR
STARTCHAR 0401
ENCODING 1025
SWIDTH 589 0
DWIDTH 9 0
BBX 8 12 1 0
BITMAP
04
00
7F
20
20
22
3E
22
40
40
41
FF
ENDCHAR
STARTCHAR 0402
ENCODING 1026
SWIDTH 785 0
DWIDTH 12 0
BBX 9 13 1 -3
BITMAP
FF00
9100
1000
1F00
1080
1080
2080
2080
2080
7100
0100
0900
0E00
ENDCHAR
STARTCHAR 0403
ENCODING 1027
SWIDTH 589 0
DWIDTH 9 0
BBX 8 13 1 0
BITMAP
03
04
00
7F
20
20
20
20
20
40
40
40
E0
ENDCHAR
STARTCHAR 0404
ENCODING 1028
SWIDTH 654 0
DWIDTH 10 0
BBX 9 10 1 0
BITMAP
1F80
2080
4000
8000
FC00
8000
8000
8000
4100
3F00
ENDCHAR
STARTCHAR 0405
ENCODING 1029
SWIDTH 523 0
DWIDTH 8 0
BBX 8 10 0 0
BITMAP
3F
41
40
40
30
0C
02
02
82
FC
ENDCHAR
STARTCHAR 0406
ENCODING 1030
SWIDTH 327 0
DWIDTH 5 0
BBX 4 10 0 0
BITMAP
30
10
10
10
10
10
20
20
20
70
ENDCHAR
STARTCHAR 0407
ENCODING 1031
SWIDTH 327 0
DWIDTH 5 0
BBX 5 12 0 0
BITMAP
20
00
38
10
10
10
10
10
20
20
20
70
ENDCHAR
STARTCHAR 0408
ENCODING 1032
SWIDTH 458 0
DWIDTH 7 0
BBX 6 10 0 0
BITMAP
1C
08
08
08
08
08
10
10
90
E0
ENDCHAR
STARTCHAR 0409
ENCODING 1033
SWIDTH 916 0
DWIDTH 14 0
BBX 13 10 0 0
BITMAP
0FC0
0480
0480
0880
08F0
0888
1108
1108
A110
C3E0
ENDCHAR
STARTCHAR 040A
ENCODING 1034
SWIDTH 916 0
DWIDTH 14 0
BBX 13 10 0 0
BITMAP
38E0
1040
1040
1040
1FF8
1040
2080
2080
2088
71F0
ENDCHAR
STARTCHAR 040B
ENCODING 1035
SWIDTH 785 0
DWIDTH 12 0
BBX 9 10 1 0
BITMAP
FF00
9100
1000
1F00
1100
1080
2100
2100
2100
7380
ENDCHAR
STARTCHAR 040C
ENCODING 1036
SWIDTH 654 0
DWIDTH 10 0
BBX 10 13 0 0
BITMAP
00C0
0100
0000
38C0
1080
1100
1200
1C00
1200
2200
2100
2080
70C0
ENDCHAR
STARTCHAR 040E
ENCODING 1038
SWIDTH 654 0
DWIDTH 10 0
BBX 10 13 1 0
BITMAP
0440
0380
0000
70C0
2040
1080
1100
0A00
0A00
0400
0800
5000
7000
ENDCHAR
STARTCHAR 040F
ENCODING 1039
SWIDTH 720 0
DWIDTH 11 0
BBX 10 13 0 -3
BITMAP
38C0
1040
1040
1040
1040
1040
2080
2080
2080
7FC0
0400
0400
0400
ENDCHAR
STARTCHAR 0410
ENCODING 1040
SWIDTH 589 0
DWIDTH 9 0
BBX 10 10 -1 0
BITMAP
0200
0600
0500
0900
0900
1100
3F00
2080
4080
E1C0
ENDCHAR
STARTCHAR 0411
ENCODING 1041
SWIDTH 589 0
DWIDTH 9 0
BBX 8 10 1 0
BITMAP
7F
20
20
20
3C
22
41
41
42
FC
ENDCHAR
STARTCHAR 0412
ENCODING 1042
SWIDTH 589 0
DWIDTH 9 0
BBX 8 10 0 -1
BITMAP
3F
10
10
11
1E
11
20
20
21
7E
ENDCHAR
STARTCHAR 0413
ENCODING 1043
SWIDTH 589 0
DWIDTH 9 0
BBX 8 10 1 0
BITMAP
7F
20
20
20
20
20
40
40
40
E0
ENDCHAR
STARTCHAR 0414
ENCODING 1044
SWIDTH 654 0
DWIDTH 10 0
BBX 10 13 -1 -3
BITMAP
0FC0
0480
0480
0880
0880
0880
1100
1100
2100
FF80
8080
8080
8080
ENDCHAR
STARTCHAR 0415
ENCODING 1045
SWIDTH 589 0
DWIDTH 9 0
BBX 8 10 1 0
BITMAP
7F
20
20
22
3E
22
40
40
41
FF
ENDCHAR
STARTCHAR 0416
ENCODING 1046
SWIDTH 916 0
DWIDTH 14 0
BBX 14 10 0 0
BITMAP
3B9C
1110
0920
0540
0DC0
1320
1220
2220
4210
C718
ENDCHAR
STARTCHAR 0417
ENCODING 1047
SWIDTH 458 0
DWIDTH 7 0
BBX 6 10 0 0
BITMAP
78
44
04
08
30
08
04
04
88
F0
ENDCHAR
STARTCHAR 0418
ENCODING 1048
SWIDTH 720 0
DWIDTH 11 0
BBX 10 10 0 0
BITMAP
38C0
1040
10C0
1140
1240
1440
2880
3080
2080
71C0
ENDCHAR
STARTCHAR 0419
ENCODING 1049
SWIDTH 720 0
DWIDTH 11 0
BBX 10 13 0 0
BITMAP
0440
0380
0000
38C0
1040
10C0
1140
1240
1440
2880
3080
2080
71C0
ENDCHAR
STARTCHAR 041A
ENCODING 1050
SWIDTH 654 0
DWIDTH 10 0
BBX 10 10 0 0
BITMAP
38C0
1080
1100
1200
1C00
1200
2200
2100
2080
70C0
ENDCHAR
STARTCHAR 041B
ENCODING 1051
SWIDTH 654 0
DWIDTH 10 0
BBX 9 10 0 0
BITMAP
1F80
0900
0900
1100
1100
1100
2200
2200
A200
C700
ENDCHAR
STARTCHAR 041C
ENCODING 1052
SWIDTH 850 0
DWIDTH 13 0
BBX 12 10 0 0
BITMAP
3810
1830
1430
1450
1450
1490
2520
2320
2220
7270
ENDCHAR
STARTCHAR 041D
ENCODING 1053
SWIDTH 720 0
DWIDTH 11 0
BBX 10 10 0 0
BITMAP
38C0
1040
1040
1040
1FC0
1040
2080
2080
2080
71C0
ENDCHAR
STARTCHAR 041E
ENCODING 1054
SWIDTH 720 0
DWIDTH 11 0
BBX 9 10 1 0
BITMAP
1E00
2100
4080
4080
8080
8080
8100
8100
4200
3C00
ENDCHAR
STARTCHAR 041F
ENCODING 1055
SWIDTH 720 0
DWIDTH 11 0
BBX 10 10 0 0
BITMAP
3FC0
1040
1040
1040
1040
1040
2080
2080
2080
71C0
ENDCHAR
STARTCHAR 0420
ENCODING 1056
SWIDTH 589 0
DWIDTH 9 0
BBX 8 10 0 0
BITMAP
3F
10
10
10
11
1E
20
20
20
78
ENDCHAR
STARTCHAR 0421
ENCODING 1057
SWIDTH 654 0
DWIDTH 10 0
BBX 9 10 1 0
BITMAP
1F80
2080
4000
8000
8000
8000
8000
8000
4100
3F00
ENDCHAR
STARTCHAR 0422
ENCODING 1058
SWIDTH 523 0
DWIDTH 8 0
BBX 8 10 1 0
BITMAP
FF
91
10
10
10
10
20
20
20
F8
ENDCHAR
STARTCHAR 0423
ENCODING 1059
SWIDTH 654 0
DWIDTH 10 0
BBX 10 10 1 0
BITMAP
70C0
2040
1080
1100
0A00
0A00
0400
0800
5000
7000
ENDCHAR
STARTCHAR 0424
ENCODING 1060
SWIDTH 720 0
DWIDTH 11 0
BBX 9 10 1 0
BITMAP
1C00
0800
3F00
4880
8880
8880
9100
7E00
1000
3800
ENDCHAR
STARTCHAR 0425
ENCODING 1061
SWIDTH 589 0
DWIDTH 9 0
BBX 8 10 1 0
BITMAP
73
21
12
14
08
18
14
24
42
E7
ENDCHAR
STARTCHAR 0426
ENCODING 1062
SWIDTH 720 0
DWIDTH 11 0
BBX 10 13 0 -3
BITMAP
38C0
1040
1040
1040
1040
1040
2080
2080
2080
7FC0
0040
0040
0040
ENDCHAR
STARTCHAR 0427
ENCODING 1063
SWIDTH 654 0
DWIDTH 10 0
BBX 8 10 2 0
BITMAP
73
21
21
41
42
42
3E
02
02
07
ENDCHAR
STARTCHAR 0428
ENCODING 1064
SWIDTH 1047 0
DWIDTH 16 0
BBX 14 10 1 0
BITMAP
39CC
1084
1084
1084
1084
1084
2108
2108
2108
7FFC
ENDCHAR
STARTCHAR 0429
ENCODING 1065
SWIDTH 1047 0
DWIDTH 16 0
BBX 14 13 1 -3
BITMAP
39CC
1084
1084
1084
1084
1084
2108
2108
2108
7FFC
0004
0004
0004
ENDCHAR
STARTCHAR 042A
ENCODING 1066
SWIDTH 654 0
DWIDTH 10 0
BBX 8 10 1 0
BITMAP
F8
90
10
10
1E
11
21
21
22
7C
ENDCHAR
STARTCHAR 042B
ENCODING 1067
SWIDTH 850 0
DWIDTH 13 0
BBX 13 10 0 0
BITMAP
3838
1010
1010
1010
1E10
1110
20A0
20A0
2120
7E70
ENDCHAR
STARTCHAR 042C
ENCODING 1068
SWIDTH 589 0
DWIDTH 9 0
BBX 8 10 0 0
BITMAP
38
10
10
10
1E
11
20
20
21
7E
ENDCHAR
STARTCHAR 042D
ENCODING 1069
SWIDTH 654 0
DWIDTH 10 0
BBX 9 10 0 0
BITMAP
7E00
4100
0080
0080
0F80
0080
0080
0100
8200
FC00
ENDCHAR
STARTCHAR 042E
ENCODING 1070
SWIDTH 981 0
DWIDTH 15 0
BBX 14 10 0 0
BITMAP
3878
1084
1100
1100
1E00
1200
2204
2204
2108
70F0
ENDCHAR
STARTCHAR 042F
ENCODING 1071
SWIDTH 654 0
DWIDTH 10 0
BBX 10 10 -1 0
BITMAP
07C0
0880
1080
1080
0880
0F80
1100
2100
2100
C380
ENDCHAR
STARTCHAR 0430
ENCODING 1072
SWIDTH 523 0
DWIDTH 8 0
BBX 6 7 1 0
BITMAP
3C
44
84
88
88
98
6C
ENDCHAR
STARTCHAR 0431
ENCODING 1073
SWIDTH 523 0
DWIDTH 8 0
BBX 7 10 1 0
BITMAP
06
38
40
B8
C4
84
84
84
88
70
ENDCHAR
STARTCHAR 0432
ENCODING 1074
SWIDTH 458 0
DWIDTH 7 0
BBX 5 7 1 0
BITMAP
30
48
90
F0
88
88
70
ENDCHAR
STARTCHAR 0433
ENCODING 1075
SWIDTH 392 0
DWIDTH 6 0
BBX 4 7 1 0
BITMAP
20
10
10
60
80
90
60
ENDCHAR
STARTCHAR 0434
ENCODING 1076
SWIDTH 523 0
DWIDTH 8 0
BBX 6 10 1 0
BITMAP
30
08
04
3C
44
84
84
84
88
70
ENDCHAR
STARTCHAR 0435
ENCODING 1077
SWIDTH 458 0
DWIDTH 7 0
BBX 5 7 1 0
BITMAP
38
48
98
E0
80
88
70
ENDCHAR
STARTCHAR 0436
ENCODING 1078
SWIDTH 916 0
DWIDTH 14 0
BBX 14 7 0 0
BITMAP
311C
4924
0940
0FC0
0A40
9248
E230
ENDCHAR
STARTCHAR 0437
ENCODING 1079
SWIDTH 392 0
DWIDTH 6 0
BBX 5 7 0 0
BITMAP
70
48
08
30
08
88
70
ENDCHAR
STARTCHAR 0438
ENCODING 1080
SWIDTH 523 0
DWIDTH 8 0
BBX 6 7 1 0
BITMAP
C4
44
44
88
88
98
6C
ENDCHAR
STARTCHAR 0439
ENCODING 1081
SWIDTH 523 0
DWIDTH 8 0
BBX 7 10 1 0
BITMAP
22
1C
00
C4
44
44
88
88
98
6C
ENDCHAR
STARTCHAR 043A
ENCODING 1082
SWIDTH 458 0
DWIDTH 7 0
BBX 6 7 1 0
BITMAP
CC
48
70
60
90
88
8C
ENDCHAR
STARTCHAR 043B
ENCODING 1083
SWIDTH 458 0
DWIDTH 7 0
BBX 7 7 -1 0
BITMAP
0E
12
12
24
24
24
C6
ENDCHAR
STARTCHAR 043C
ENCODING 1084
SWIDTH 654 0
DWIDTH 10 0
BBX 9 7 0 0
BITMAP
6080
2180
6280
5500
5500
4900
8980
ENDCHAR
STARTCHAR 043D
ENCODING 1085
SWIDTH 523 0
DWIDTH 8 0
BBX 6 7 1 0
BITMAP
C4
44
44
78
88
88
8C
ENDCHAR
STARTCHAR 043E
ENCODING 1086
SWIDTH 523 0
DWIDTH 8 0
BBX 6 7 1 0
BITMAP
38
44
84
84
84
88
70
ENDCHAR
STARTCHAR 043F
ENCODING 1087
SWIDTH 523 0
DWIDTH 8 0
BBX 6 7 1 0
BITMAP
D8
64
44
44
88
88
8C
ENDCHAR
STARTCHAR 0440
ENCODING 1088
SWIDTH 523 0
DWIDTH 8 0
BBX 8 10 -1 -3
BITMAP
36
19
11
21
21
22
3C
20
40
E0
ENDCHAR
STARTCHAR 0441
ENCODING 1089
SWIDTH 458 0
DWIDTH 7 0
BBX 6 7 1 0
BITMAP
3C
44
80
80
80
88
70
ENDCHAR
STARTCHAR 0442
ENCODING 1090
SWIDTH 654 0
DWIDTH 10 0
BBX 8 7 1 0
BITMAP
D2
6D
49
4A
92
92
93
ENDCHAR
STARTCHAR 0443
ENCODING 1091
SWIDTH 458 0
DWIDTH 7 0
BBX 8 10 -1 -3
BITMAP
61
21
22
12
14
14
08
10
90
E0
ENDCHAR
STARTCHAR 0444
ENCODING 1092
SWIDTH 720 0
DWIDTH 11 0
BBX 9 13 1 -3
BITMAP
0C00
0400
0400
3F00
4880
8880
8880
8880
8900
7600
1000
1000
1800
ENDCHAR
STARTCHAR 0445
ENCODING 1093
SWIDTH 458 0
DWIDTH 7 0
BBX 7 7 0 0
BITMAP
62
24
28
10
28
48
8C
ENDCHAR
STARTCHAR 0446
ENCODING 1094
SWIDTH 523 0
DWIDTH 8 0
BBX 6 10 1 -3
BITMAP
C4
44
44
88
88
98
6C
04
08
08
ENDCHAR
STARTCHAR 0447
ENCODING 1095
SWIDTH 458 0
DWIDTH 7 0
BBX 6 7 0 0
BITMAP
60
20
40
4C
74
04
04
ENDCHAR
STARTCHAR 0448
ENCODING 1096
SWIDTH 785 0
DWIDTH 12 0
BBX 10 7 1 0
BITMAP
6200
2200
2200
4440
4440
4CC0
3340
ENDCHAR
STARTCHAR 0449
ENCODING 1097
SWIDTH 785 0
DWIDTH 12 0
BBX 10 10 1 -3
BITMAP
6200
2200
2200
4440
4440
4CC0
3340
0000
0040
0040
ENDCHAR
STARTCHAR 044A
ENCODING 1098
SWIDTH 523 0
DWIDTH 8 0
BBX 6 7 1 0
BITMAP
F0
A0
20
58
64
44
38
ENDCHAR
STARTCHAR 044B
ENCODING 1099
SWIDTH 654 0
DWIDTH 10 0
BBX 8 7 1 0
BITMAP
C1
41
41
72
8A
8A
F3
ENDCHAR
STARTCHAR 044C
ENCODING 1100
SWIDTH 458 0
DWIDTH 7 0
BBX 5 7 1 0
BITMAP
C0
40
40
70
88
88
F0
ENDCHAR
STARTCHAR 044D
ENCODING 1101
SWIDTH 458 0
DWIDTH 7 0
BBX 6 7 0 0
BITMAP
78
44
04
3C
04
88
70
ENDCHAR
STARTCHAR 044E
ENCODING 1102
SWIDTH 720 0
DWIDTH 11 0
BBX 9 7 1 0
BITMAP
C700
4880
5080
7080
9080
9100
8E00
ENDCHAR
STARTCHAR 044F
ENCODING 1103
SWIDTH 458 0
DWIDTH 7 0
BBX 6 7 0 0
BITMAP
3C
44
44
38
28
48
CC
ENDCHAR
STARTCHAR 0451
ENCODING 1105
SWIDTH 458 0
DWIDTH 7 0
BBX 6 10 1 0
BITMAP
24
00
00
38
48
98
E0
80
88
70
ENDCHAR
STARTCHAR 0452
ENCODING 1106
SWIDTH 458 0
DWIDTH 7 0
BBX 6 13 1 -3
BITMAP
20
F8
40
58
64
44
44
88
88
88
08
28
30
ENDCHAR
STARTCHAR 0453
ENCODING 1107
SWIDTH 392 0
DWIDTH 6 0
BBX 5 10 1 0
BITMAP
18
20
00
F8
48
40
40
80
80
80
ENDCHAR
STARTCHAR 0454
ENCODING 1108
SWIDTH 458 0
DWIDTH 7 0
BBX 6 7 1 0
BITMAP
3C
44
80
F0
80
88
70
ENDCHAR
STARTCHAR 0455
ENCODING 1109
SWIDTH 392 0
DWIDTH 6 0
BBX 6 7 0 0
BITMAP
3C
44
40
30
08
88
F0
ENDCHAR
STARTCHAR 0456
ENCODING 1110
SWIDTH 261 0
DWIDTH 4 0
BBX 3 10 1 0
BITMAP
20
00
00
C0
40
40
80
80
80
C0
ENDCHAR
STARTCHAR 0457
ENCODING 1111
SWIDTH 261 0
DWIDTH 4 0
BBX 4 10 1 0
BITMAP
90
00
00
C0
40
40
80
80
80
C0
ENDCHAR
STARTCHAR 0458
ENCODING 1112
SWIDTH 327 0
DWIDTH 5 0
BBX 5 13 -1 -3
BITMAP
08
00
00
18
08
08
08
10
10
10
10
A0
C0
ENDCHAR
STARTCHAR 0459
ENCODING 1113
SWIDTH 654 0
DWIDTH 10 0
BBX 10 7 -1 0
BITMAP
0E00
1200
1200
2380
2440
2440
C780
ENDCHAR
STARTCHAR 045A
ENCODING 1114
SWIDTH 654 0
DWIDTH 10 0
BBX 8 7 1 0
BITMAP
C8
48
48
7E
91
91
9E
ENDCHAR
STARTCHAR 045B
ENCODING 1115
SWIDTH 523 0
DWIDTH 8 0
BBX 6 10 1 0
BITMAP
20
F8
40
58
64
44
44
88
88
8C
ENDCHAR
STARTCHAR 045C
ENCODING 1116
SWIDTH 458 0
DWIDTH 7 0
BBX 6 10 1 0
BITMAP
0C
10
00
CC
48
70
60
90
88
8C
ENDCHAR
STARTCHAR 045E
ENCODING 1118
SWIDTH 458 0
DWIDTH 7 0
BBX 9 13 -1 -3
BITMAP
0880
0700
0000
6100
2100
2200
1200
1400
1400
0800
1000
9000
E000
ENDCHAR
STARTCHAR 045F
ENCODING 1119
SWIDTH 523 0
DWIDTH 8 0
BBX 6 10 1 -3
BITMAP
60
20
20
44
44
4C
34
00
10
20
ENDCHAR
STARTCHAR 0490
ENCODING 1168
SWIDTH 458 0
DWIDTH 7 0
BBX 7 10 1 0
BITMAP
7E
20
20
20
20
20
40
40
40
E0
ENDCHAR
STARTCHAR 0491
ENCODING 1169
SWIDTH 327 0
DWIDTH 5 0
BBX 5 9 1 0
BITMAP
08
08
F8
40
40
40
80
80
80
ENDCHAR
STARTCHAR 1E80
ENCODING 7808
SWIDTH 785 0
DWIDTH 12 0
BBX 12 13 1 0
BITMAP
0600
0100
0000
E070
4420
4440
4C40
5480
5680
5300
2300
2200
2200
ENDCHAR
STARTCHAR 1E81
ENCODING 7809
SWIDTH 654 0
DWIDTH 10 0
BBX 10 10 0 0
BITMAP
0C00
0200
0000
C040
4440
4C80
4D00
5500
2200
2200
ENDCHAR
STARTCHAR 1E82
ENCODING 7810
SWIDTH 785 0
DWIDTH 12 0
BBX 12 13 1 0
BITMAP
0180
0200
0000
E070
4420
4440
4C40
5480
5680
5300
2300
2200
2200
ENDCHAR
STARTCHAR 1E83
ENCODING 7811
SWIDTH 654 0
DWIDTH 10 0
BBX 10 10 0 0
BITMAP
0180
0200
0000
C040
4440
4C80
4D00
5500
2200
2200
ENDCHAR
STARTCHAR 1E84
ENCODING 7812
SWIDTH 785 0
DWIDTH 12 0
BBX 12 12 1 0
BITMAP
0480
0000
E070
4420
4440
4C40
5480
5680
5300
2300
2200
2200
ENDCHAR
STARTCHAR 1E85
ENCODING 7813
SWIDTH 654 0
DWIDTH 10 0
BBX 10 10 0 0
BITMAP
0900
0000
0000
C040
4440
4C80
4D00
5500
2200
2200
ENDCHAR
STARTCHAR 1EF2
ENCODING 7922
SWIDTH 523 0
DWIDTH 8 0
BBX 8 13 1 0
BITMAP
0C
02
00
73
21
22
14
14
18
08
10
10
7C
ENDCHAR
STARTCHAR 1EF3
ENCODING 7923
SWIDTH 458 0
DWIDTH 7 0
BBX 8 13 -1 -3
BITMAP
0C
02
00
61
21
22
12
14
14
08
10
90
E0
ENDCHAR
STARTCHAR 2013
ENCODING 8211
SWIDTH 523 0
DWIDTH 8 0
BBX 8 1 0 3
BITMAP
FF
ENDCHAR
STARTCHAR 2014
ENCODING 8212
SWIDTH 850 0
DWIDTH 13 0
BBX 13 1 0 3
BITMAP
FFF8
ENDCHAR
STARTCHAR 2015
ENCODING 8213
SWIDTH 981 0
DWIDTH 15 0
BBX 15 1 0 3
BITMAP
FFFE
ENDCHAR
STARTCHAR 2017
ENCODING 8215
SWIDTH 523 0
DWIDTH 8 0
BBX 8 3 0 -4
BITMAP
FF
00
FF
ENDCHAR
STARTCHAR 2018
ENCODING 8216
SWIDTH 327 0
DWIDTH 5 0
BBX 2 4 2 6
BITMAP
40
80
80
80
ENDCHAR
STARTCHAR 2019
ENCODING 8217
SWIDTH 327 0
DWIDTH 5 0
BBX 2 4 2 6
BITMAP
40
40
40
80
ENDCHAR
STARTCHAR 201A
ENCODING 8218
SWIDTH 327 0
DWIDTH 5 0
BBX 2 4 1 -3
BITMAP
40
40
40
80
ENDCHAR
STARTCHAR 201B
ENCODING 8219
SWIDTH 327 0
DWIDTH 5 0
BBX 2 4 2 6
BITMAP
40
80
80
80
ENDCHAR
STARTCHAR 201C
ENCODING 8220
SWIDTH 523 0
DWIDTH 8 0
BBX 5 4 2 6
BITMAP
48
90
90
90
ENDCHAR
STARTCHAR 201D
ENCODING 8221
SWIDTH 523 0
DWIDTH 8 0
BBX 5 4 2 6
BITMAP
48
48
48
90
ENDCHAR
STARTCHAR 201E
ENCODING 8222
SWIDTH 523 0
DWIDTH 8 0
BBX 5 4 0 -3
BITMAP
48
48
48
90
ENDCHAR
STARTCHAR 2020
ENCODING 8224
SWIDTH 523 0
DWIDTH 8 0
BBX 7 12 1 -2
BITMAP
10
10
10
FE
10
20
20
40
40
40
40
40
ENDCHAR
STARTCHAR 2021
ENCODING 8225
SWIDTH 523 0
DWIDTH 8 0
BBX 8 12 0 -2
BITMAP
04
04
04
3F
08
08
08
08
7F
10
10
10
ENDCHAR
STARTCHAR 2022
ENCODING 8226
SWIDTH 327 0
DWIDTH 5 0
BBX 4 4 1 3
BITMAP
60
F0
F0
60
ENDCHAR
STARTCHAR 2026
ENCODING 8230
SWIDTH 850 0
DWIDTH 13 0
BBX 10 1 1 0
BITMAP
8440
ENDCHAR
STARTCHAR 2030
ENCODING 8240
SWIDTH 1047 0
DWIDTH 16 0
BBX 14 10 1 0
BITMAP
3040
4880
8900
9200
6400
0B18
14A4
28C4
4948
8630
ENDCHAR
STARTCHAR 2032
ENCODING 8242
SWIDTH 196 0
DWIDTH 3 0
BBX 0 0 0 0
BITMAP
ENDCHAR
STARTCHAR 2033
ENCODING 8243
SWIDTH 392 0
DWIDTH 6 0
BBX 4 4 1 6
BITMAP
40
40
40
40
ENDCHAR
STARTCHAR 2039
ENCODING 8249
SWIDTH 327 0
DWIDTH 5 0
BBX 3 5 1 1
BITMAP
20
40
80
80
40
ENDCHAR
STARTCHAR 203A
ENCODING 8250
SWIDTH 327 0
DWIDTH 5 0
BBX 3 5 1 1
BITMAP
40
40
20
40
80
ENDCHAR
STARTCHAR 203C
ENCODING 8252
SWIDTH 589 0
DWIDTH 9 0
BBX 6 10 1 0
BITMAP
44
44
44
44
88
88
88
88
00
88
ENDCHAR
STARTCHAR 203E
ENCODING 8254
SWIDTH 327 0
DWIDTH 5 0
BBX 5 1 0 11
BITMAP
F8
ENDCHAR
STARTCHAR 2044
ENCODING 8260
SWIDTH 196 0
DWIDTH 3 0
BBX 8 10 -3 0
BITMAP
01
02
04
08
08
10
20
20
40
80
ENDCHAR
STARTCHAR 207F
ENCODING 8319
SWIDTH 327 0
DWIDTH 5 0
BBX 3 4 1 4
BITMAP
C0
A0
A0
A0
ENDCHAR
STARTCHAR 20A3
ENCODING 8355
SWIDTH 523 0
DWIDTH 8 0
BBX 8 10 0 0
BITMAP
3F
10
10
11
1F
11
20
7C
20
70
ENDCHAR
STARTCHAR 20A4
ENCODING 8356
SWIDTH 523 0
DWIDTH 8 0
BBX 8 10 0 0
BITMAP
0F
11
20
20
78
20
F8
20
40
FC
ENDCHAR
STARTCHAR 20A7
ENCODING 8359
SWIDTH 981 0
DWIDTH 15 0
BBX 14 10 0 0
BITMAP
3E00
1100
1100
1180
13EC
1C90
2088
2104
2110
70DC
ENDCHAR
STARTCHAR 20AC
ENCODING 8364
SWIDTH 523 0
DWIDTH 8 0
BBX 9 10 0 0
BITMAP
0F80
1080
2000
FC00
4000
F800
4000
4000
4000
3E00
ENDCHAR
STARTCHAR 2105
ENCODING 8453
SWIDTH 981 0
DWIDTH 15 0
BBX 13 10 1 0
BITMAP
3C20
4440
8080
8900
7200
0470
0888
1108
2110
40E0
ENDCHAR
STARTCHAR 2113
ENCODING 8467
SWIDTH 392 0
DWIDTH 6 0
BBX 5 10 1 0
BITMAP
18
28
28
28
30
60
C0
40
50
60
ENDCHAR
STARTCHAR 2116
ENCODING 8470
SWIDTH 916 0
DWIDTH 14 0
BBX 13 10 0 0
BITMAP
38E0
1440
1440
1240
1258
1260
21A0
21B8
2080
70B8
ENDCHAR
STARTCHAR 2122
ENCODING 8482
SWIDTH 916 0
DWIDTH 14 0
BBX 13 6 1 4
BITMAP
FF18
AB30
2350
22D0
22D0
7618
ENDCHAR
STARTCHAR 2126
ENCODING 8486
SWIDTH 785 0
DWIDTH 12 0
BBX 10 10 1 0
BITMAP
3F00
4080
8040
8040
8040
8040
4080
3300
9240
F3C0
ENDCHAR
STARTCHAR 212E
ENCODING 8494
SWIDTH 589 0
DWIDTH 9 0
BBX 8 8 1 0
BITMAP
3C
42
C3
FF
C0
C0
41
3E
ENDCHAR
STARTCHAR 215B
ENCODING 8539
SWIDTH 720 0
DWIDTH 11 0
BBX 9 10 1 0
BITMAP
6080
2100
4200
4400
4500
EA80
1100
1680
2480
4300
ENDCHAR
STARTCHAR 215C
ENCODING 8540
SWIDTH 720 0
DWIDTH 11 0
BBX 10 10 0 0
BITMAP
6040
1080
6100
3200
1280
E540
0880
0B40
1240
2180
ENDCHAR
STARTCHAR 215D
ENCODING 8541
SWIDTH 720 0
DWIDTH 11 0
BBX 10 10 0 0
BITMAP
7040
4080
6100
1200
1280
E540
0880
0B40
1240
2180
ENDCHAR
STARTCHAR 215E
ENCODING 8542
SWIDTH 720 0
DWIDTH 11 0
BBX 9 10 1 0
BITMAP
F100
2200
2400
4800
4900
9280
2100
2680
4480
8300
ENDCHAR
STARTCHAR 2190
ENCODING 8592
SWIDTH 981 0
DWIDTH 15 0
BBX 9 3 3 0
BITMAP
4000
FF80
4000
ENDCHAR
STARTCHAR 2191
ENCODING 8593
SWIDTH 523 0
DWIDTH 8 0
BBX 3 9 2 -1
BITMAP
20
60
20
20
20
20
20
20
20
ENDCHAR
STARTCHAR 2192
ENCODING 8594
SWIDTH 981 0
DWIDTH 15 0
BBX 9 3 3 0
BITMAP
0100
FF80
0100
ENDCHAR
STARTCHAR 2193
ENCODING 8595
SWIDTH 523 0
DWIDTH 8 0
BBX 3 9 2 -1
BITMAP
20
20
20
20
20
20
20
60
20
ENDCHAR
STARTCHAR 2194
ENCODING 8596
SWIDTH 981 0
DWIDTH 15 0
BBX 9 3 3 0
BITMAP
4100
FF80
4100
ENDCHAR
STARTCHAR 2195
ENCODING 8597
SWIDTH 523 0
DWIDTH 8 0
BBX 3 9 2 -1
BITMAP
20
60
20
20
20
20
20
60
20
ENDCHAR
STARTCHAR 21A8
ENCODING 8616
SWIDTH 523 0
DWIDTH 8 0
BBX 3 11 2 -3
BITMAP
20
60
20
20
20
20
20
60
20
00
60
ENDCHAR
STARTCHAR 2202
ENCODING 8706
SWIDTH 458 0
DWIDTH 7 0
BBX 6 10 1 0
BITMAP
18
24
04
34
4C
84
84
88
88
70
ENDCHAR
STARTCHAR 2206
ENCODING 8710
SWIDTH 589 0
DWIDTH 9 0
BBX 9 10 0 0
BITMAP
0800
1400
1400
2200
2200
2200
4100
4100
8080
FF80
ENDCHAR
STARTCHAR 220F
ENCODING 8719
SWIDTH 785 0
DWIDTH 12 0
BBX 10 13 1 -3
BITMAP
7FC0
2040
2040
2040
2040
2040
2040
2040
2040
2040
2040
2040
70C0
ENDCHAR
STARTCHAR 2211
ENCODING 8721
SWIDTH 720 0
DWIDTH 11 0
BBX 9 13 1 -3
BITMAP
FF00
4100
4100
2000
1000
0800
0800
1000
2000
2000
4080
4080
FF80
ENDCHAR
STARTCHAR 2212
ENCODING 8722
SWIDTH 654 0
DWIDTH 10 0
BBX 7 1 2 5
BITMAP
FE
ENDCHAR
STARTCHAR 2215
ENCODING 8725
SWIDTH 196 0
DWIDTH 3 0
BBX 8 10 -3 0
BITMAP
01
02
04
08
08
10
20
20
40
80
ENDCHAR
STARTCHAR 2219
ENCODING 8729
SWIDTH 261 0
DWIDTH 4 0
BBX 1 1 1 4
BITMAP
80
ENDCHAR
STARTCHAR 221A
ENCODING 8730
SWIDTH 523 0
DWIDTH 8 0
BBX 8 12 0 0
BITMAP
01
01
02
02
02
C4
44
24
28
28
28
10
ENDCHAR
STARTCHAR 221E
ENCODING 8734
SWIDTH 720 0
DWIDTH 11 0
BBX 11 5 0 1
BITMAP
71C0
8A20
8420
8A20
71C0
ENDCHAR
STARTCHAR 221F
ENCODING 8735
SWIDTH 981 0
DWIDTH 15 0
BBX 9 9 3 0
BITMAP
8000
8000
8000
8000
8000
8000
8000
8000
FF80
ENDCHAR
STARTCHAR 2229
ENCODING 8745
SWIDTH 720 0
DWIDTH 11 0
BBX 7 8 2 0
BITMAP
38
44
82
82
82
82
82
82
ENDCHAR
STARTCHAR 222B
ENCODING 8747
SWIDTH 196 0
DWIDTH 3 0
BBX 6 15 -1 -4
BITMAP
0C
30
20
20
20
20
20
20
20
20
20
20
20
20
C0
ENDCHAR
STARTCHAR 2248
ENCODING 8776
SWIDTH 523 0
DWIDTH 8 0
BBX 7 6 1 2
BITMAP
62
92
8C
62
92
8C
ENDCHAR
STARTCHAR 2260
ENCODING 8800
SWIDTH 523 0
DWIDTH 8 0
BBX 7 8 1 1
BITMAP
02
04
7E
08
10
7E
20
40
ENDCHAR
STARTCHAR 2261
ENCODING 8801
SWIDTH 654 0
DWIDTH 10 0
BBX 7 6 2 2
BITMAP
7E
00
7E
00
00
7E
ENDCHAR
STARTCHAR 2264
ENCODING 8804
SWIDTH 523 0
DWIDTH 8 0
BBX 7 9 1 0
BITMAP
02
0C
30
C0
60
18
06
00
FE
ENDCHAR
STARTCHAR 2265
ENCODING 8805
SWIDTH 523 0
DWIDTH 8 0
BBX 7 9 1 0
BITMAP
80
60
18
06
0C
30
C0
00
FE
ENDCHAR
STARTCHAR 2302
ENCODING 8962
SWIDTH 589 0
DWIDTH 9 0
BBX 7 9 1 0
BITMAP
10
28
44
82
82
82
82
82
FE
ENDCHAR
STARTCHAR 2310
ENCODING 8976
SWIDTH 654 0
DWIDTH 10 0
BBX 7 4 2 0
BITMAP
FE
80
80
80
ENDCHAR
STARTCHAR 2320
ENCODING 8992
SWIDTH 589 0
DWIDTH 9 0
BBX 3 18 4 -5
BITMAP
60
80
80
80
80
80
80
80
80
80
80
80
80
80
80
80
80
80
ENDCHAR
STARTCHAR 2321
ENCODING 8993
SWIDTH 589 0
DWIDTH 9 0
BBX 3 18 2 -5
BITMAP
20
20
20
20
20
20
20
20
20
20
20
20
20
20
20
20
20
C0
ENDCHAR
STARTCHAR 2500
ENCODING 9472
SWIDTH 720 0
DWIDTH 11 0
BBX 11 1 0 4
BITMAP
7FE0
ENDCHAR
STARTCHAR 2502
ENCODING 9474
SWIDTH 589 0
DWIDTH 9 0
BBX 1 19 5 -5
BITMAP
80
80
80
80
80
80
80
80
80
80
80
80
80
80
80
80
80
80
80
ENDCHAR
STARTCHAR 250C
ENCODING 9484
SWIDTH 720 0
DWIDTH 11 0
BBX 6 10 5 -5
BITMAP
FC
80
80
80
80
80
80
80
80
80
ENDCHAR
STARTCHAR 2510
ENCODING 9488
SWIDTH 720 0
DWIDTH 11 0
BBX 5 1 1 4
BITMAP
F8
ENDCHAR
STARTCHAR 2514
ENCODING 9492
SWIDTH 720 0
DWIDTH 11 0
BBX 6 10 5 4
BITMAP
80
80
80
80
80
80
80
80
80
FC
ENDCHAR
STARTCHAR 2518
ENCODING 9496
SWIDTH 720 0
DWIDTH 11 0
BBX 5 1 1 4
BITMAP
F8
ENDCHAR
STARTCHAR 251C
ENCODING 9500
SWIDTH 720 0
DWIDTH 11 0
BBX 6 19 5 -5
BITMAP
80
80
80
80
80
80
80
80
80
FC
80
80
80
80
80
80
80
80
80
ENDCHAR
STARTCHAR 2524
ENCODING 9508
SWIDTH 720 0
DWIDTH 11 0
BBX 5 1 1 4
BITMAP
F8
ENDCHAR
STARTCHAR 252C
ENCODING 9516
SWIDTH 720 0
DWIDTH 11 0
BBX 11 10 0 -5
BITMAP
7FE0
0200
0200
0200
0200
0200
0200
0200
0200
0200
ENDCHAR
STARTCHAR 2534
ENCODING 9524
SWIDTH 720 0
DWIDTH 11 0
BBX 11 10 0 4
BITMAP
0200
0200
0200
0200
0200
0200
0200
0200
0200
7FE0
ENDCHAR
STARTCHAR 253C
ENCODING 9532
SWIDTH 720 0
DWIDTH 11 0
BBX 11 19 0 -5
BITMAP
0200
0200
0200
0200
0200
0200
0200
0200
0200
7FE0
0200
0200
0200
0200
0200
0200
0200
0200
0200
ENDCHAR
STARTCHAR 2550
ENCODING 9552
SWIDTH 720 0
DWIDTH 11 0
BBX 11 4 0 3
BITMAP
7FE0
0000
0000
7FE0
ENDCHAR
STARTCHAR 2551
ENCODING 9553
SWIDTH 720 0
DWIDTH 11 0
BBX 4 19 3 -5
BITMAP
90
90
90
90
90
90
90
90
90
90
90
90
90
90
90
90
90
90
90
ENDCHAR
STARTCHAR 2552
ENCODING 9554
SWIDTH 720 0
DWIDTH 11 0
BBX 6 12 5 -5
BITMAP
FC
80
80
FC
80
80
80
80
80
80
80
80
ENDCHAR
STARTCHAR 2553
ENCODING 9555
SWIDTH 720 0
DWIDTH 11 0
BBX 8 10 3 -5
BITMAP
FF
90
90
90
90
90
90
90
90
90
ENDCHAR
STARTCHAR 2554
ENCODING 9556
SWIDTH 720 0
DWIDTH 11 0
BBX 8 12 3 -5
BITMAP
FF
80
80
9F
90
90
90
90
90
90
90
90
ENDCHAR
STARTCHAR 2555
ENCODING 9557
SWIDTH 720 0
DWIDTH 11 0
BBX 5 4 1 3
BITMAP
F8
00
00
F8
ENDCHAR
STARTCHAR 2556
ENCODING 9558
SWIDTH 720 0
DWIDTH 11 0
BBX 7 10 0 -5
BITMAP
7E
08
08
08
08
08
08
08
08
08
ENDCHAR
STARTCHAR 2557
ENCODING 9559
SWIDTH 720 0
DWIDTH 11 0
BBX 7 12 0 -5
BITMAP
7E
00
00
78
08
08
08
08
08
08
08
08
ENDCHAR
STARTCHAR 2558
ENCODING 9560
SWIDTH 720 0
DWIDTH 11 0
BBX 6 11 5 3
BITMAP
80
80
80
80
80
80
80
FC
80
80
FC
ENDCHAR
STARTCHAR 2559
ENCODING 9561
SWIDTH 720 0
DWIDTH 11 0
BBX 8 10 3 4
BITMAP
90
90
90
90
90
90
90
90
90
FF
ENDCHAR
STARTCHAR 255A
ENCODING 9562
SWIDTH 720 0
DWIDTH 11 0
BBX 8 11 3 3
BITMAP
90
90
90
90
90
90
90
9F
80
80
FF
ENDCHAR
STARTCHAR 255B
ENCODING 9563
SWIDTH 720 0
DWIDTH 11 0
BBX 5 4 1 3
BITMAP
F8
00
00
F8
ENDCHAR
STARTCHAR 255C
ENCODING 9564
SWIDTH 720 0
DWIDTH 11 0
BBX 7 10 0 4
BITMAP
08
08
08
08
08
08
08
08
08
7E
ENDCHAR
STARTCHAR 255D
ENCODING 9565
SWIDTH 720 0
DWIDTH 11 0
BBX 7 11 0 3
BITMAP
08
08
08
08
08
08
08
78
00
00
7E
ENDCHAR
STARTCHAR 255E
ENCODING 9566
SWIDTH 720 0
DWIDTH 11 0
BBX 6 19 5 -5
BITMAP
80
80
80
80
80
80
80
FC
80
80
FC
80
80
80
80
80
80
80
80
ENDCHAR
STARTCHAR 255F
ENCODING 9567
SWIDTH 720 0
DWIDTH 11 0
BBX 8 19 3 -5
BITMAP
90
90
90
90
90
90
90
90
90
9F
90
90
90
90
90
90
90
90
90
ENDCHAR
STARTCHAR 2560
ENCODING 9568
SWIDTH 720 0
DWIDTH 11 0
BBX 8 19 3 -5
BITMAP
90
90
90
90
90
90
90
9F
80
80
9F
90
90
90
90
90
90
90
90
ENDCHAR
STARTCHAR 2561
ENCODING 9569
SWIDTH 720 0
DWIDTH 11 0
BBX 5 4 1 3
BITMAP
F8
00
00
F8
ENDCHAR
STARTCHAR 2562
ENCODING 9570
SWIDTH 720 0
DWIDTH 11 0
BBX 7 19 0 -5
BITMAP
08
08
08
08
08
08
08
08
08
78
08
08
08
08
08
08
08
08
08
ENDCHAR
STARTCHAR 2563
ENCODING 9571
SWIDTH 720 0
DWIDTH 11 0
BBX 7 19 0 -5
BITMAP
08
08
08
08
08
08
08
78
00
00
78
08
08
08
08
08
08
08
08
ENDCHAR
STARTCHAR 2564
ENCODING 9572
SWIDTH 720 0
DWIDTH 11 0
BBX 11 12 0 -5
BITMAP
7FE0
0000
0000
7FE0
0200
0200
0200
0200
0200
0200
0200
0200
ENDCHAR
STARTCHAR 2565
ENCODING 9573
SWIDTH 720 0
DWIDTH 11 0
BBX 11 10 0 -5
BITMAP
7FE0
0900
0900
0900
0900
0900
0900
0900
0900
0900
ENDCHAR
STARTCHAR 2566
ENCODING 9574
SWIDTH 720 0
DWIDTH 11 0
BBX 11 12 0 -5
BITMAP
7FE0
0000
0000
79E0
0900
0900
0900
0900
0900
0900
0900
0900
ENDCHAR
STARTCHAR 2567
ENCODING 9575
SWIDTH 720 0
DWIDTH 11 0
BBX 11 11 0 3
BITMAP
0200
0200
0200
0200
0200
0200
0200
7FE0
0000
0000
7FE0
ENDCHAR
STARTCHAR 2568
ENCODING 9576
SWIDTH 720 0
DWIDTH 11 0
BBX 11 10 0 4
BITMAP
0900
0900
0900
0900
0900
0900
0900
0900
0900
7FE0
ENDCHAR
STARTCHAR 2569
ENCODING 9577
SWIDTH 720 0
DWIDTH 11 0
BBX 11 11 0 3
BITMAP
0900
0900
0900
0900
0900
0900
0900
79E0
0000
0000
7FE0
ENDCHAR
STARTCHAR 256A
ENCODING 9578
SWIDTH 720 0
DWIDTH 11 0
BBX 11 19 0 -5
BITMAP
0200
0200
0200
0200
0200
0200
0200
7FE0
0200
0200
7FE0
0200
0200
0200
0200
0200
0200
0200
0200
ENDCHAR
STARTCHAR 256B
ENCODING 9579
SWIDTH 720 0
DWIDTH 11 0
BBX 11 19 0 -5
BITMAP
0900
0900
0900
0900
0900
0900
0900
0900
0900
7FE0
0900
0900
0900
0900
0900
0900
0900
0900
0900
ENDCHAR
STARTCHAR 256C
ENCODING 9580
SWIDTH 720 0
DWIDTH 11 0
BBX 11 19 0 -5
BITMAP
0900
0900
0900
0900
0900
0900
0900
79E0
0000
0000
79E0
0900
0900
0900
0900
0900
0900
0900
0900
ENDCHAR
STARTCHAR 2580
ENCODING 9600
SWIDTH 720 0
DWIDTH 11 0
BBX 11 9 0 5
BITMAP
FFE0
FFE0
FFE0
FFE0
FFE0
FFE0
FFE0
FFE0
FFE0
ENDCHAR
STARTCHAR 2584
ENCODING 9604
SWIDTH 720 0
DWIDTH 11 0
BBX 11 10 0 -5
BITMAP
FFE0
FFE0
FFE0
FFE0
FFE0
FFE0
FFE0
FFE0
FFE0
FFE0
ENDCHAR
STARTCHAR 2588
ENCODING 9608
SWIDTH 720 0
DWIDTH 11 0
BBX 11 19 0 -5
BITMAP
FFE0
FFE0
FFE0
FFE0
FFE0
FFE0
FFE0
FFE0
FFE0
FFE0
FFE0
FFE0
FFE0
FFE0
FFE0
FFE0
FFE0
FFE0
FFE0
ENDCHAR
STARTCHAR 258C
ENCODING 9612
SWIDTH 720 0
DWIDTH 11 0
BBX 5 19 0 -5
BITMAP
F8
F8
F8
F8
F8
F8
F8
F8
F8
F8
F8
F8
F8
F8
F8
F8
F8
F8
F8
ENDCHAR
STARTCHAR 2590
ENCODING 9616
SWIDTH 720 0
DWIDTH 11 0
BBX 6 19 5 -5
BITMAP
FC
FC
FC
FC
FC
FC
FC
FC
FC
FC
FC
FC
FC
FC
FC
FC
FC
FC
FC
ENDCHAR
STARTCHAR 2591
ENCODING 9617
SWIDTH 720 0
DWIDTH 11 0
BBX 10 16 1 -4
BITMAP
9240
2480
0000
9240
2480
9240
0000
2480
9240
0000
2480
9240
2480
0000
9240
2480
ENDCHAR
STARTCHAR 2592
ENCODING 9618
SWIDTH 720 0
DWIDTH 11 0
BBX 11 15 0 -4
BITMAP
9240
6DA0
0000
9240
6DA0
0000
0000
6DA0
9240
0000
6DA0
9240
0000
0000
9240
ENDCHAR
STARTCHAR 2593
ENCODING 9619
SWIDTH 720 0
DWIDTH 11 0
BBX 11 17 0 -5
BITMAP
FFE0
DAC0
6DA0
FFE0
DAE0
6DA0
FFE0
FFE0
6DA0
DAC0
FFE0
6DA0
DAC0
FFE0
FFE0
DAC0
FFE0
ENDCHAR
STARTCHAR 25A0
ENCODING 9632
SWIDTH 589 0
DWIDTH 9 0
BBX 7 7 1 0
BITMAP
7E
7E
7E
7E
7E
7E
7E
ENDCHAR
STARTCHAR 25A1
ENCODING 9633
SWIDTH 589 0
DWIDTH 9 0
BBX 9 9 0 0
BITMAP
FF80
8080
8080
8080
8080
8080
8080
8080
FF80
ENDCHAR
STARTCHAR 25AA
ENCODING 9642
SWIDTH 327 0
DWIDTH 5 0
BBX 4 4 1 3
BITMAP
F0
F0
F0
F0
ENDCHAR
STARTCHAR 25AB
ENCODING 9643
SWIDTH 327 0
DWIDTH 5 0
BBX 4 4 1 3
BITMAP
F0
90
90
F0
ENDCHAR
STARTCHAR 25AC
ENCODING 9644
SWIDTH 981 0
DWIDTH 15 0
BBX 15 5 0 0
BITMAP
FFFE
FFFE
FFFE
FFFE
FFFE
ENDCHAR
STARTCHAR 25B2
ENCODING 9650
SWIDTH 981 0
DWIDTH 15 0
BBX 9 9 3 0
BITMAP
0800
0800
1C00
1C00
3E00
3E00
7F00
7F00
FF80
ENDCHAR
STARTCHAR 25BA
ENCODING 9658
SWIDTH 981 0
DWIDTH 15 0
BBX 8 8 4 -1
BITMAP
C0
F0
FC
FF
FE
F8
E0
80
ENDCHAR
STARTCHAR 25BC
ENCODING 9660
SWIDTH 981 0
DWIDTH 15 0
BBX 9 9 3 -1
BITMAP
FF80
7F00
7F00
3E00
3E00
1C00
1C00
0800
0800
ENDCHAR
STARTCHAR 25C4
ENCODING 9668
SWIDTH 981 0
DWIDTH 15 0
BBX 8 7 4 0
BITMAP
03
0F
3F
FF
3F
0F
03
ENDCHAR
STARTCHAR 25CA
ENCODING 9674
SWIDTH 523 0
DWIDTH 8 0
BBX 7 10 1 0
BITMAP
10
28
28
44
82
82
44
28
28
10
ENDCHAR
STARTCHAR 25CB
ENCODING 9675
SWIDTH 589 0
DWIDTH 9 0
BBX 7 7 1 1
BITMAP
38
44
82
82
82
44
38
ENDCHAR
STARTCHAR 25CF
ENCODING 9679
SWIDTH 589 0
DWIDTH 9 0
BBX 6 6 1 1
BITMAP
78
FC
FC
FC
FC
78
ENDCHAR
STARTCHAR 25D8
ENCODING 9688
SWIDTH 589 0
DWIDTH 9 0
BBX 8 8 0 0
BITMAP
FF
C3
81
81
81
81
C3
FF
ENDCHAR
STARTCHAR 25D9
ENCODING 9689
SWIDTH 589 0
DWIDTH 9 0
BBX 8 8 0 0
BITMAP
FF
C3
99
BD
BD
99
C3
FF
ENDCHAR
STARTCHAR 25E6
ENCODING 9702
SWIDTH 327 0
DWIDTH 5 0
BBX 4 4 1 2
BITMAP
60
90
90
60
ENDCHAR
STARTCHAR 263A
ENCODING 9786
SWIDTH 981 0
DWIDTH 15 0
BBX 9 9 3 0
BITMAP
3E00
4100
8080
A280
8080
A280
9C80
4100
3E00
ENDCHAR
STARTCHAR 263B
ENCODING 9787
SWIDTH 1047 0
DWIDTH 16 0
BBX 9 9 3 0
BITMAP
3E00
7F00
FF80
DD80
FF80
DD80
E380
7F00
3E00
ENDCHAR
STARTCHAR 263C
ENCODING 9788
SWIDTH 916 0
DWIDTH 14 0
BBX 9 9 2 -1
BITMAP
0800
4900
3E00
2200
E380
2200
3E00
4900
0800
ENDCHAR
STARTCHAR 2640
ENCODING 9792
SWIDTH 720 0
DWIDTH 11 0
BBX 5 8 4 0
BITMAP
60
90
90
70
20
F8
20
20
ENDCHAR
STARTCHAR 2642
ENCODING 9794
SWIDTH 720 0
DWIDTH 11 0
BBX 6 6 2 2
BITMAP
0C
0C
70
90
90
60
ENDCHAR
STARTCHAR 2660
ENCODING 9824
SWIDTH 523 0
DWIDTH 8 0
BBX 7 9 0 0
BITMAP
10
10
38
7C
FE
FE
FE
10
38
ENDCHAR
STARTCHAR 2663
ENCODING 9827
SWIDTH 654 0
DWIDTH 10 0
BBX 9 9 0 0
BITMAP
1C00
1C00
1C00
7F00
FF80
FF80
6B00
0800
3E00
ENDCHAR
STARTCHAR 2665
ENCODING 9829
SWIDTH 589 0
DWIDTH 9 0
BBX 7 8 1 0
BITMAP
EE
EE
FE
7C
7C
38
10
10
ENDCHAR
STARTCHAR 2666
ENCODING 9830
SWIDTH 523 0
DWIDTH 8 0
BBX 7 9 0 -1
BITMAP
10
10
38
7C
FE
7C
38
38
10
ENDCHAR
STARTCHAR 266A
ENCODING 9834
SWIDTH 523 0
DWIDTH 8 0
BBX 5 8 2 0
BITMAP
20
30
38
28
28
20
E0
C0
ENDCHAR
STARTCHAR 266B
ENCODING 9835
SWIDTH 720 0
DWIDTH 11 0
BBX 8 8 2 0
BITMAP
03
3D
27
39
21
21
E7
C6
ENDCHAR
STARTCHAR F001
ENCODING 61441
SWIDTH 523 0
DWIDTH 8 0
BBX 7 13 0 -3
BITMAP
1E
22
20
7E
22
42
44
44
44
46
80
80
80
ENDCHAR
STARTCHAR F002
ENCODING 61442
SWIDTH 523 0
DWIDTH 8 0
BBX 8 13 0 -3
BITMAP
1F
22
22
72
22
42
44
44
44
46
80
80
80
ENDCHAR
STARTCHAR F004
ENCODING 61444
SWIDTH 327 0
DWIDTH 5 0
BBX 2 3 0 -4
BITMAP
40
40
80
ENDCHAR
STARTCHAR F005
ENCODING 61445
SWIDTH 327 0
DWIDTH 5 0
BBX 3 3 1 -4
BITMAP
40
20
C0
ENDCHAR
STARTCHAR FB01
ENCODING 64257
SWIDTH 523 0
DWIDTH 8 0
BBX 7 13 0 -3
BITMAP
1E
22
20
7E
22
42
44
44
44
46
80
80
80
ENDCHAR
STARTCHAR FB02
ENCODING 64258
SWIDTH 523 0
DWIDTH 8 0
BBX 8 13 0 -3
BITMAP
1F
22
22
72
22
42
44
44
44
46
80
80
80
ENDCHAR
ENDFONT
